<svg width="24" height="24" viewBox="0 0 24 24" fill="none" xmlns="http://www.w3.org/2000/svg">
<path d="M21.9362 15.0835C21.8317 15.0402 15.4106 14.7672 15.2787 14.8426C15.1467 14.9181 1.80739 14.3381 1.89898 14.3381C1.99057 14.3381 2.30641 12.7577 2.30641 12.7577C2.30641 12.7577 3.58315 11.8178 3.70258 11.7197C3.82202 11.6215 19.2065 11.6393 19.2981 11.7372C19.3897 11.8351 21.9362 12.9645 21.9362 12.9645V15.0835Z" fill="#FF725E"/>
<g opacity="0.5">
<path d="M21.9362 15.0835C21.8317 15.0402 15.4106 14.7672 15.2787 14.8426C15.1467 14.9181 1.80739 14.3381 1.89898 14.3381C1.99057 14.3381 2.30641 12.7577 2.30641 12.7577C2.30641 12.7577 3.58315 11.8178 3.70258 11.7197C3.82202 11.6215 19.2065 11.6393 19.2981 11.7372C19.3897 11.8351 21.9362 12.9645 21.9362 12.9645V15.0835Z" fill="black"/>
</g>
<path d="M3.10158 8.5765L1.47992 10.0655L2.20723 10.2547L2.84058 9.80897L3.70264 8.98793L3.40355 8.51294L3.10158 8.5765Z" fill="#455A64"/>
<path d="M17.6486 10.4191C17.6486 10.4191 14.8353 8.6056 13.8341 8.31128L13.5418 8.44893L14.0128 8.84588L17.4703 10.6362L17.6486 10.4191Z" fill="#455A64"/>
<path d="M1.05246 11.9083L1.31783 11.3923L1.18516 11.1859V10.434L1.48001 10.0654L2.02548 9.9917L3.39651 8.72383L3.10167 8.57641L3.02794 8.39951L3.11639 8.23734C4.87075 7.91302 9.91269 7.83929 11.2248 7.82454C12.5368 7.80979 13.8342 8.31103 13.8342 8.31103L13.7162 8.41423C13.7162 8.41423 14.2617 8.67961 15.0283 9.04815C15.795 9.41673 17.3576 10.4487 17.3576 10.4487L17.9326 10.3897C20.8958 10.6109 22.1047 11.2153 22.488 11.3922C22.8713 11.5691 23.3283 12.6453 23.3283 12.6453C23.4463 12.9008 23.2399 14.2523 23.2399 14.2523C23.2399 14.2523 22.0163 14.8272 21.972 14.8272C21.9624 14.8272 21.7292 14.823 21.3707 14.8164C21.3889 14.7019 21.3986 14.5847 21.3986 14.4651C21.3986 13.239 20.4047 12.2451 19.1786 12.2451C17.9525 12.2451 16.9586 13.239 16.9586 14.4651C16.9586 14.5568 16.9648 14.647 16.9756 14.7357L9.23452 14.6356L6.90415 14.3814C6.86007 13.1941 5.88426 12.2451 4.68623 12.2451C3.7796 12.2451 2.99991 12.7885 2.65513 13.5675C2.6072 13.6757 2.56806 13.7887 2.53777 13.9052L1.25882 13.7657L0.890244 13.3087L1.05246 11.9083Z" fill="#FF725E"/>
<path d="M23.3647 14.1729C23.3647 14.1729 23.2853 14.7078 23.1522 14.8275C23.0191 14.9472 21.8091 15.2618 21.5792 15.2739C21.3493 15.286 21.2468 15.2739 21.2468 15.2739L21.3987 14.2938L23.3647 14.1729Z" fill="#263238"/>
<path d="M17.1023 14.1726C17.1023 14.1847 16.9569 15.2791 16.9569 15.2791L6.97045 14.9591L6.78688 13.8459L17.1023 14.1726Z" fill="#263238"/>
<g opacity="0.3">
<path d="M16.5721 13.8031C16.5726 13.7972 16.0782 13.5422 15.373 13.4572C14.6677 13.3722 8.7455 13.0578 8.35465 13.1088C7.9638 13.1598 7.38604 13.4062 7.38604 13.4062L16.5721 13.8031Z" fill="black"/>
</g>
<path d="M10.9215 15.0836C10.9219 15.0836 10.9222 15.0794 10.9225 15.0711C10.9227 15.0618 10.9229 15.0497 10.9233 15.0343C10.9236 15.0008 10.924 14.9534 10.9246 14.8929C10.925 14.7691 10.9256 14.5917 10.9263 14.3731C10.9258 13.9331 10.9253 13.3272 10.9246 12.6579C10.9251 12.4904 10.9195 12.3259 10.9035 12.1687C10.8895 12.0112 10.8714 11.8598 10.8525 11.7158C10.8145 11.4279 10.7736 11.1697 10.7381 10.953C10.7014 10.7375 10.6717 10.5626 10.6509 10.4405C10.6409 10.3808 10.633 10.3341 10.6275 10.3011C10.6246 10.2852 10.6235 10.2731 10.6223 10.2649C10.6212 10.2567 10.6204 10.2524 10.6201 10.2524C10.6198 10.2524 10.6199 10.2567 10.6204 10.2649C10.621 10.2732 10.6215 10.2857 10.6238 10.3016C10.6277 10.3338 10.6345 10.3809 10.6438 10.4416C10.6633 10.5639 10.691 10.7391 10.7253 10.9551C10.7592 11.1719 10.7987 11.4302 10.8357 11.718C10.8541 11.8619 10.8719 12.0131 10.8855 12.1703C10.9013 12.3275 10.9068 12.4903 10.9063 12.6577C10.909 13.3271 10.9115 13.9331 10.9133 14.3731C10.915 14.5917 10.9165 14.7691 10.9175 14.893C10.9184 14.9535 10.9191 15.0009 10.9196 15.0343C10.92 15.0497 10.9203 15.0619 10.9206 15.0711C10.9209 15.0794 10.9212 15.0836 10.9215 15.0836Z" fill="#263238"/>
<g opacity="0.3">
<path d="M20.9055 11.4703C20.9463 11.4826 16.6664 11.386 15.912 11.2831C15.1575 11.1801 2.92481 10.6816 2.92481 10.6816C2.92481 10.6816 19.4774 11.0391 20.9055 11.4703Z" fill="black"/>
</g>
<g opacity="0.3">
<path d="M2.30652 11.5298C2.30652 11.5298 2.09299 12.0265 1.85553 12.0749C1.61804 12.1234 1.05245 11.9083 1.05245 11.9083L1.31782 11.3923L2.30652 11.5298Z" fill="black"/>
</g>
<path d="M2.97335 10.7586C2.96823 10.8116 2.41252 11.4996 2.30643 11.53C2.20033 11.5603 1.53751 11.5199 1.47987 11.4946C1.42224 11.4693 1.3177 11.3925 1.3177 11.3925L1.18503 11.1861C1.18503 11.1861 1.16001 10.669 1.18503 10.6751C1.21005 10.6812 2.98347 10.6541 2.97335 10.7586Z" fill="white"/>
<path d="M22.531 11.7196C22.5311 11.7193 22.5269 11.717 22.5183 11.7129C22.509 11.7085 22.4964 11.7026 22.4803 11.695C22.4467 11.6795 22.3969 11.6575 22.3324 11.6299C22.2032 11.5751 22.0151 11.498 21.7784 11.4143C21.66 11.3728 21.5297 11.3287 21.3879 11.2874C21.2462 11.2459 21.0935 11.2054 20.9299 11.1751C20.6028 11.1176 20.2409 11.0715 19.8609 11.0252C19.1004 10.9348 18.4106 10.8659 17.9112 10.8175C17.6621 10.7944 17.4602 10.7757 17.3195 10.7627C17.2504 10.7569 17.1964 10.7523 17.1586 10.7492C17.1408 10.7479 17.127 10.7469 17.1166 10.7462C17.1072 10.7456 17.1023 10.7455 17.1023 10.7458C17.1023 10.7461 17.1071 10.7469 17.1165 10.748C17.1267 10.7492 17.1406 10.7508 17.1582 10.7529C17.1959 10.7569 17.2499 10.7625 17.3189 10.7698C17.4594 10.7842 17.6611 10.8049 17.9099 10.8304C18.4089 10.8821 19.0984 10.9531 19.8587 11.0435C20.2385 11.0897 20.6004 11.1353 20.9269 11.1917C21.0896 11.2215 21.2421 11.2612 21.3836 11.302C21.5253 11.3426 21.6556 11.3859 21.7741 11.4266C22.0111 11.5085 22.1997 11.5838 22.3296 11.6365C22.3937 11.6631 22.4438 11.6839 22.4788 11.6984C22.4951 11.7052 22.508 11.7106 22.5176 11.7146C22.5263 11.7182 22.5309 11.7199 22.531 11.7196Z" fill="#263238"/>
<path d="M22.5607 11.7328C22.5742 11.7391 22.993 12.2965 22.9366 12.3576C22.8802 12.4186 22.2225 12.4327 21.9923 12.3059C21.7621 12.1791 20.9353 11.5026 20.9306 11.4744C20.9259 11.4462 22.2225 11.5731 22.5607 11.7328Z" fill="white"/>
<g opacity="0.3">
<path d="M23.3647 13.1278C23.3602 13.1284 22.5112 13.0012 22.3057 13.1812C22.1003 13.3612 22.0054 14.0918 22.027 14.1728C22.0486 14.2538 23.2525 14.1658 23.2516 14.1728C23.2511 14.1762 23.2875 13.926 23.3152 13.6698C23.3443 13.4021 23.3647 13.1278 23.3647 13.1278Z" fill="black"/>
</g>
<path d="M23.0003 13.1677C23.0143 13.198 22.9136 13.8477 22.8069 13.941C22.7003 14.0343 22.0603 14.0543 22.0603 14.0543C22.0603 14.0543 22.1714 13.3236 22.3057 13.221C22.4401 13.1184 22.9603 13.081 23.0003 13.1677Z" fill="#263238"/>
<path d="M13.0682 8.08455C13.0682 8.08455 12.7882 7.90639 12.3032 7.72805C11.8182 7.54971 9.81532 7.54971 8.78244 7.56767C7.74956 7.58564 5.43228 7.58303 4.92031 7.72805C4.40837 7.87307 4.04029 8.11413 4.04029 8.11413L4.48976 8.07693C4.48976 8.07693 4.93354 7.82433 5.88133 7.81018C6.38424 7.80266 11.45 7.76528 11.7194 7.81018C11.9889 7.85511 12.221 7.92054 12.221 7.92054L13.0682 8.08455Z" fill="#E0E0E0"/>
<path d="M13.0682 8.08464C13.0415 8.07935 12.7703 8.02559 12.2217 7.91685L12.2221 7.91692C12.1402 7.89423 12.0518 7.87263 11.9571 7.85166C11.9097 7.84129 11.8607 7.83123 11.8101 7.82163C11.7848 7.81708 11.7591 7.81242 11.733 7.80772C11.7069 7.80324 11.6798 7.80306 11.6526 7.80052C11.598 7.79565 11.5425 7.79636 11.4853 7.79392C11.4281 7.79191 11.3696 7.79099 11.3097 7.79015C11.1899 7.78799 11.0646 7.78644 10.9342 7.78559C10.4125 7.78129 9.80787 7.78101 9.13714 7.78231C8.46638 7.78535 7.72954 7.7887 6.9434 7.79223C6.74685 7.79371 6.54726 7.79519 6.34481 7.79668C6.24359 7.79759 6.14166 7.79848 6.03906 7.79939C5.98774 7.79999 5.93628 7.80059 5.88465 7.80116C5.83294 7.80271 5.7811 7.8043 5.72907 7.80589C5.52119 7.81542 5.3108 7.83575 5.10144 7.87637C4.99654 7.89543 4.89235 7.92137 4.78894 7.95169C4.68574 7.9831 4.58325 8.01822 4.48531 8.06893L4.48909 8.06777C4.34671 8.07956 4.1936 8.09219 4.03961 8.10493L4.0454 8.12177C4.06058 8.11206 4.07748 8.10162 4.09457 8.09156C4.23013 8.01148 4.37106 7.94202 4.51432 7.88138C4.65779 7.82152 4.80356 7.76777 4.95204 7.73043C5.10052 7.69482 5.25362 7.68289 5.40394 7.66806C5.55479 7.65553 5.70472 7.64629 5.85338 7.63835C6.44833 7.60937 7.0231 7.59991 7.57047 7.59155C8.11792 7.58417 8.63816 7.57718 9.12504 7.57062C9.61185 7.56515 10.0654 7.56673 10.4793 7.57418C10.8932 7.58233 11.2675 7.59684 11.5953 7.6225C11.7593 7.63436 11.9112 7.65246 12.0504 7.67293C12.0849 7.67957 12.1187 7.68603 12.1517 7.69238C12.1682 7.69584 12.1847 7.69817 12.2005 7.70244C12.2163 7.70696 12.2318 7.71144 12.2472 7.71589C12.3092 7.73163 12.3657 7.75602 12.4197 7.77631C12.6353 7.86056 12.7975 7.93873 12.9055 7.99489C12.9596 8.02298 13.0002 8.04557 13.0273 8.06103C13.0545 8.07663 13.0682 8.08464 13.0682 8.08464C13.0682 8.08464 13.055 8.07546 13.0282 8.05951C13.0014 8.04352 12.961 8.02037 12.9072 7.99171C12.7996 7.93443 12.6378 7.85516 12.4223 7.76975C12.3682 7.74913 12.3121 7.72457 12.2494 7.70833C12.234 7.70382 12.2183 7.69923 12.2024 7.69457C12.1865 7.69023 12.17 7.68779 12.1535 7.68426C12.1203 7.67777 12.0865 7.67113 12.0518 7.66436C11.9124 7.64332 11.7602 7.62469 11.5961 7.61233C11.2681 7.58565 10.8936 7.57026 10.4796 7.56126C10.0655 7.55301 9.61185 7.55064 9.12486 7.55544C8.63794 7.56148 8.11771 7.5679 7.57023 7.57468C7.02274 7.58258 6.44787 7.59169 5.85243 7.62042C5.70359 7.62832 5.55349 7.63746 5.40232 7.64999C5.25144 7.66489 5.09861 7.67657 4.94745 7.71275C4.79752 7.75044 4.65144 7.80433 4.50712 7.86451C4.36308 7.92546 4.22159 7.99517 4.08511 8.07582C4.06788 8.08598 4.05094 8.09643 4.03527 8.10645L4.00411 8.12636L4.04106 8.12329C4.19505 8.11055 4.34815 8.09788 4.49053 8.08609L4.49237 8.08595L4.49434 8.08492C4.58925 8.03576 4.69203 8.00025 4.79417 7.96923C4.89687 7.93912 5.00046 7.91329 5.10486 7.8943C5.31317 7.85382 5.52274 7.83349 5.72989 7.82392C5.78173 7.82233 5.8334 7.82075 5.88493 7.81916C5.93653 7.81856 5.98799 7.81792 6.03927 7.81732C6.14187 7.81637 6.24377 7.81538 6.34499 7.81443C6.5474 7.8128 6.74703 7.81118 6.94354 7.80959C7.72965 7.80522 8.46648 7.80116 9.13721 7.79742C9.80794 7.79516 10.4125 7.79435 10.9341 7.79738C11.0646 7.79791 11.1898 7.79915 11.3095 7.80098C11.3694 7.80165 11.4279 7.80243 11.485 7.80426C11.542 7.80649 11.5981 7.80568 11.6518 7.8103C11.6787 7.81277 11.7054 7.81273 11.7314 7.81715C11.7574 7.82173 11.7831 7.82629 11.8084 7.83077C11.8589 7.84019 11.9079 7.85008 11.9552 7.86024C12.0499 7.88078 12.1384 7.90203 12.22 7.9243L12.2202 7.92433L12.2203 7.92437C12.7698 8.02824 13.0415 8.07959 13.0682 8.08464Z" fill="#263238"/>
<path d="M2.66881 14.8275C2.57097 14.8164 2.68606 13.5863 2.74042 13.5889C2.78093 13.5909 0.976628 13.2205 0.900004 13.2244C0.816039 13.2286 0.791757 13.3136 0.80718 13.2787C0.80718 13.2787 0.616239 13.8967 0.679875 14.0531C0.74351 14.2095 2.05621 14.7931 2.15962 14.8275C2.26306 14.8619 2.66881 14.8275 2.66881 14.8275Z" fill="#263238"/>
<path d="M5.79007 12.548C5.79039 12.5479 5.78972 12.5441 5.78817 12.5367C5.7863 12.5283 5.7839 12.5175 5.78086 12.5039C5.7738 12.4739 5.76388 12.4318 5.75125 12.3782C5.72495 12.2679 5.68737 12.1104 5.64106 11.9163C5.59504 11.7212 5.54026 11.4888 5.484 11.2298C5.45682 11.1003 5.42619 10.9641 5.40703 10.8221C5.40508 10.8046 5.403 10.7861 5.40399 10.7699C5.40357 10.7625 5.40801 10.7541 5.41122 10.7459L5.42128 10.7212C5.43671 10.6881 5.45227 10.6547 5.46798 10.621C5.50059 10.5541 5.53366 10.4862 5.56712 10.4174C5.83836 9.86888 6.08922 9.37487 6.26912 9.0165C6.35862 8.83808 6.43122 8.69334 6.48205 8.59201C6.50647 8.5426 6.5256 8.50381 6.53922 8.47625C6.54522 8.46365 6.54999 8.45366 6.5537 8.44593C6.55687 8.43905 6.55835 8.43545 6.55807 8.43531C6.55779 8.43517 6.55574 8.43848 6.55204 8.44508C6.54794 8.4526 6.54265 8.46231 6.53594 8.47455C6.52161 8.50173 6.50143 8.53999 6.4757 8.58877C6.42364 8.68946 6.34924 8.83328 6.25754 9.0106C6.07468 9.3675 5.82198 9.86055 5.55064 10.4093C5.51718 10.4781 5.48407 10.5461 5.45146 10.6131C5.43572 10.647 5.42012 10.6806 5.40463 10.714L5.39404 10.7402C5.39068 10.749 5.38613 10.7569 5.38599 10.7681C5.38483 10.7882 5.38715 10.8059 5.38913 10.8242C5.40882 10.9681 5.43978 11.1037 5.46745 11.2334C5.52466 11.4924 5.58074 11.7245 5.62843 11.9193C5.67625 12.114 5.71617 12.2714 5.74429 12.3799C5.75838 12.4332 5.76943 12.4751 5.77726 12.5048C5.78104 12.5182 5.78404 12.5289 5.78633 12.5372C5.78848 12.5444 5.78975 12.5481 5.79007 12.548Z" fill="#263238"/>
<path d="M17.1407 10.7584C17.1133 10.7479 14.5189 8.82306 13.3054 8.58242C12.0919 8.34182 10.8679 8.24766 9.64392 8.27903C8.41996 8.31041 4.72714 8.54056 4.72714 8.54056L4.09947 9.21009L5.62682 10.1412L17.1407 10.7584Z" fill="#455A64"/>
<g opacity="0.2">
<path d="M13.3053 8.58242C13.9291 8.7061 14.9178 9.27486 15.7351 9.79982C15.0013 9.66885 12.3281 9.22654 10.8578 9.11932C9.16186 8.99565 4.18461 9.11932 4.18454 9.11932L4.72712 8.54057C4.72712 8.54057 8.41994 8.31041 9.64391 8.27904C10.8678 8.24766 12.0918 8.34179 13.3053 8.58242Z" fill="white"/>
</g>
<path d="M10.62 8.31128L11.2477 10.4447L10.108 10.3815L9.97155 8.31128H10.62Z" fill="#263238"/>
<path d="M6.41397 10.1856C6.39011 10.1617 6.28666 9.20701 6.28666 9.20701C6.28666 9.20701 6.71626 8.4353 6.6924 8.4353C6.66854 8.4353 6.36621 8.4353 6.36621 8.4353C6.36621 8.4353 5.54679 10.1378 5.56271 10.1378C5.57862 10.1378 6.41397 10.1856 6.41397 10.1856Z" fill="#263238"/>
<path d="M17.1407 10.7937C17.1573 10.7937 17.1718 10.7821 17.1753 10.7657C17.1785 10.7501 17.171 10.7344 17.1572 10.7272C17.1497 10.7225 17.1133 10.6965 17.0675 10.6639C15.3238 9.42096 14.0252 8.68924 13.3122 8.54785C12.1324 8.31392 10.898 8.21161 9.64301 8.24383C8.43235 8.27485 4.76183 8.5031 4.72488 8.50543C4.71591 8.506 4.70748 8.50995 4.70134 8.51651L4.07367 9.18604C4.06639 9.19381 4.06301 9.2044 4.06442 9.21495C4.06586 9.22547 4.07197 9.23482 4.08104 9.24032L5.60836 10.1713C5.61337 10.1744 5.61902 10.1761 5.62484 10.1765L17.1388 10.7937C17.1395 10.7937 17.1401 10.7937 17.1407 10.7937ZM10.0931 8.30863C11.1884 8.30863 12.2646 8.41211 13.2985 8.6171C13.9909 8.7544 15.3122 9.49988 17.0199 10.7166L5.63758 10.1064L4.15491 9.20263L4.7433 8.575C4.99364 8.55947 8.47339 8.34442 9.64484 8.31438C9.79459 8.31057 9.94399 8.30863 10.0931 8.30863Z" fill="#E0E0E0"/>
<path d="M16.4601 15.263C16.4604 15.263 16.4611 15.2586 16.4621 15.25C16.463 15.2405 16.4643 15.2278 16.4659 15.2117C16.469 15.177 16.4735 15.1275 16.4791 15.0643C16.4897 14.9351 16.5049 14.75 16.5237 14.5218C16.5605 14.0636 16.6099 13.4306 16.6617 12.7313C16.6931 12.3016 16.7229 11.897 16.7434 11.5424C16.7448 11.4978 16.7494 11.4543 16.7445 11.4106C16.7394 11.3675 16.7304 11.3262 16.7198 11.2863C16.6984 11.2067 16.6725 11.1323 16.646 11.0625C16.5929 10.923 16.5389 10.8011 16.4899 10.6979L16.4902 10.6989C16.455 10.5584 16.427 10.4469 16.4076 10.3694C16.3979 10.3321 16.3903 10.303 16.3849 10.2822C16.3824 10.273 16.3804 10.2657 16.3788 10.2599C16.3773 10.2549 16.3764 10.2524 16.3762 10.2524C16.3759 10.2525 16.3763 10.2551 16.3773 10.2602C16.3786 10.2661 16.3802 10.2736 16.3821 10.2829C16.3869 10.3038 16.3935 10.3332 16.4021 10.3707C16.4204 10.4485 16.4467 10.5603 16.48 10.7013L16.4801 10.7018L16.4803 10.7024C16.5281 10.8058 16.581 10.928 16.6331 11.0673C16.6591 11.137 16.6844 11.2112 16.7051 11.2902C16.7154 11.3296 16.724 11.3704 16.7289 11.4122C16.7334 11.4537 16.7287 11.4975 16.7272 11.5416C16.7053 11.8958 16.6747 12.3004 16.6433 12.73C16.5916 13.4289 16.5448 14.0616 16.5108 14.5209C16.4944 14.7493 16.4811 14.9346 16.4719 15.0638C16.4677 15.1271 16.4645 15.1767 16.4622 15.2115C16.4613 15.2277 16.4606 15.2404 16.4601 15.25C16.4598 15.2585 16.4598 15.263 16.4601 15.263Z" fill="#263238"/>
<g opacity="0.3">
<path d="M16.5577 14.8071L7.19576 14.5305L7.36129 14.7347L16.2658 15.0197L16.5577 14.8071Z" fill="black"/>
</g>
<path d="M17.1777 14.4518C17.1332 13.3654 17.9779 12.4486 19.0643 12.4041C20.1506 12.3597 21.0674 13.2043 21.1119 14.2907C21.1563 15.3771 20.3117 16.2939 19.2253 16.3383C18.1389 16.3828 17.2221 15.5382 17.1777 14.4518Z" fill="#263238"/>
<path d="M21.1135 14.3379C21.1135 14.3396 21.1138 14.3412 21.1138 14.343C21.1295 15.4301 20.2609 16.3241 19.1737 16.3398C18.0866 16.3555 17.1925 15.4869 17.1769 14.3998C17.1768 14.3981 17.177 14.3964 17.177 14.3947L21.1135 14.3379Z" fill="#263238"/>
<path d="M20.5273 14.3514C20.5383 15.1147 19.9285 15.7424 19.1653 15.7534C18.402 15.7644 17.7743 15.1546 17.7633 14.3913C17.7523 13.6281 18.3621 13.0004 19.1254 12.9894C19.8887 12.9784 20.5163 13.5882 20.5273 14.3514Z" fill="#FAFAFA"/>
<path d="M19.1254 12.9894C19.8887 12.9784 20.5163 13.5882 20.5273 14.3515L17.7634 14.3914C17.7523 13.6281 18.3622 13.0004 19.1254 12.9894Z" fill="#E0E0E0"/>
<path d="M19.9872 14.3594C19.9939 14.8243 19.6225 15.2066 19.1575 15.2133C18.6926 15.22 18.3102 14.8486 18.3035 14.3836C18.2968 13.9187 18.6683 13.5363 19.1332 13.5296C19.5982 13.5229 19.9805 13.8944 19.9872 14.3594Z" fill="#263238"/>
<path d="M2.75348 14.452C2.70901 13.3656 3.55366 12.4489 4.64006 12.4044C5.72645 12.3599 6.6432 13.2046 6.68767 14.291C6.73214 15.3774 5.88749 16.2941 4.80109 16.3386C3.7147 16.383 2.79795 15.5384 2.75348 14.452Z" fill="#263238"/>
<path d="M6.69011 14.3379C6.69015 14.3396 6.69043 14.3412 6.69047 14.343C6.70614 15.4301 5.83755 16.3241 4.75038 16.3398C3.66322 16.3555 2.76918 15.4869 2.75351 14.3998C2.75348 14.3981 2.75369 14.3964 2.75369 14.3947L6.69011 14.3379Z" fill="#263238"/>
<path d="M6.10398 14.3514C6.11499 15.1147 5.50518 15.7424 4.74194 15.7534C3.97867 15.7644 3.351 15.1546 3.33999 14.3913C3.32898 13.6281 3.93879 13.0004 4.70206 12.9894C5.46533 12.9784 6.09297 13.5882 6.10398 14.3514Z" fill="#FAFAFA"/>
<path d="M4.70209 12.9894C5.46536 12.9784 6.09299 13.5882 6.104 14.3515L3.34001 14.3914C3.329 13.6281 3.93882 13.0004 4.70209 12.9894Z" fill="#E0E0E0"/>
<path d="M5.56388 14.3594C5.57058 14.8243 5.19911 15.2066 4.73418 15.2133C4.26925 15.22 3.88687 14.8486 3.88017 14.3836C3.87346 13.9187 4.24497 13.5363 4.7099 13.5296C5.17483 13.5229 5.55717 13.8944 5.56388 14.3594Z" fill="#263238"/>
<path d="M16.8599 13.1194C16.8602 13.1195 16.8624 13.1149 16.8664 13.1059C16.8706 13.0961 16.8764 13.0827 16.8838 13.0657C16.9006 13.0311 16.9242 12.9793 16.9627 12.9172C17.038 12.7922 17.1719 12.6248 17.3745 12.4593C17.576 12.2937 17.8443 12.1274 18.1695 12.0106C18.4939 11.8938 18.8761 11.8309 19.2739 11.859C19.6716 11.8878 20.0425 11.9976 20.3516 12.1506C20.6624 12.3024 20.9124 12.4936 21.1021 12.6727C21.1969 12.7627 21.2761 12.8507 21.3435 12.9296C21.3759 12.9702 21.4068 13.0074 21.4335 13.043C21.4596 13.0791 21.4846 13.1112 21.5051 13.1415C21.5255 13.1717 21.5437 13.1985 21.5596 13.222C21.5745 13.2456 21.5872 13.2657 21.5976 13.2823C21.6075 13.298 21.6153 13.3103 21.6211 13.3193C21.6265 13.3276 21.6294 13.3318 21.6296 13.3316C21.6299 13.3315 21.6275 13.327 21.6227 13.3184C21.6173 13.3091 21.6101 13.2965 21.6007 13.2804C21.5909 13.2638 21.5791 13.2429 21.5643 13.219C21.5488 13.1953 21.531 13.168 21.511 13.1374C21.4909 13.1068 21.4663 13.0742 21.4405 13.0378C21.4142 13.0018 21.3837 12.9641 21.3515 12.9231C21.2846 12.8432 21.2058 12.7543 21.1111 12.6633C20.9218 12.4822 20.6713 12.2889 20.3591 12.1354C20.0485 11.9807 19.6756 11.8697 19.2752 11.8406C18.8747 11.8123 18.4899 11.8763 18.1638 11.9947C17.8368 12.1131 17.5677 12.2815 17.3663 12.4494C17.1637 12.617 17.0303 12.7868 16.9567 12.9135C16.8823 13.0405 16.8599 13.1194 16.8599 13.1194Z" fill="#263238"/>
<path d="M2.30505 12.9351C2.30534 12.9352 2.30756 12.9307 2.31158 12.9216C2.31582 12.9118 2.32161 12.8984 2.32895 12.8814C2.34575 12.8468 2.36936 12.795 2.40793 12.7329C2.48315 12.6079 2.61712 12.4405 2.81968 12.275C3.02117 12.1094 3.28944 11.9431 3.61468 11.8263C3.93907 11.7095 4.3213 11.6465 4.71906 11.6746C5.11679 11.7034 5.48766 11.8133 5.79681 11.9663C6.10757 12.118 6.35756 12.3093 6.5473 12.4883C6.64214 12.5783 6.72126 12.6664 6.78871 12.7453C6.82111 12.7859 6.85199 12.8231 6.87868 12.8587C6.90476 12.8947 6.92975 12.9268 6.95029 12.9571C6.97072 12.9873 6.98893 13.0142 7.00482 13.0376C7.01968 13.0612 7.03235 13.0814 7.04276 13.0979C7.05271 13.1136 7.06051 13.1259 7.06627 13.135C7.07167 13.1433 7.07456 13.1474 7.07481 13.1473C7.07509 13.1471 7.07272 13.1426 7.06789 13.134C7.06252 13.1247 7.05525 13.1122 7.04594 13.096C7.03609 13.0794 7.02434 13.0586 7.00944 13.0347C6.99395 13.0109 6.97616 12.9837 6.95622 12.9531C6.9361 12.9225 6.9115 12.8899 6.88574 12.8535C6.85937 12.8175 6.82884 12.7798 6.79669 12.7388C6.72981 12.6589 6.65099 12.5699 6.55634 12.479C6.36695 12.2979 6.11646 12.1046 5.80432 11.9511C5.4937 11.7964 5.12078 11.6853 4.72041 11.6563C4.31992 11.628 3.93511 11.6919 3.60899 11.8104C3.28199 11.9288 3.01288 12.0972 2.81145 12.265C2.60887 12.4327 2.47552 12.6024 2.40186 12.7292C2.32746 12.8562 2.30505 12.9351 2.30505 12.9351Z" fill="#263238"/>
<path d="M7.19576 13.3688C7.19551 13.3739 9.26823 13.48 11.8247 13.6057C14.3821 13.7315 16.4547 13.8294 16.455 13.8243C16.4552 13.8192 14.3829 13.7132 11.8256 13.5874C9.26914 13.4616 7.196 13.3638 7.19576 13.3688Z" fill="#263238"/>
<path d="M17.8458 10.3989L17.2526 10.3801L17.3576 10.4489L17.8458 10.3989Z" fill="#263238"/>
<path d="M15.7328 10.5925C15.7296 10.6009 15.8528 10.8723 15.8528 10.8723L15.7609 10.9582H15.3136C15.3136 10.9582 14.961 10.5823 14.9728 10.5925C14.9847 10.6027 15.7135 10.5923 15.7135 10.5923" fill="#FF725E"/>
<g opacity="0.3">
<path d="M15.7296 10.5925C15.7264 10.6009 15.8496 10.8723 15.8496 10.8723L15.7578 10.9582H15.3104C15.3104 10.9582 14.9578 10.5823 14.9697 10.5925C14.9815 10.6027 15.7104 10.5923 15.7104 10.5923" fill="black"/>
</g>
<path d="M15.8273 10.2931C15.8348 10.3081 15.7646 10.4999 15.7205 10.6169C15.7001 10.6709 15.6485 10.7065 15.5907 10.7065H14.7573L14.7233 10.118L15.0005 9.83594C15.0005 9.83594 15.7252 10.0888 15.8273 10.2931Z" fill="#FF725E"/>
<path d="M15.8273 10.293C15.8273 10.293 15.819 10.2691 15.7876 10.2353C15.7566 10.2017 15.7039 10.1596 15.632 10.1152C15.488 10.0264 15.2699 9.9251 15.0033 9.82797L14.9983 9.82617L14.9946 9.82998C14.9088 9.91698 14.8149 10.0121 14.7169 10.1116L14.714 10.1144L14.7143 10.1184C14.7196 10.2117 14.7252 10.3087 14.7309 10.4078C14.7368 10.5103 14.7427 10.6105 14.7483 10.7069L14.7488 10.7154H14.7574C14.9484 10.7151 15.1278 10.7147 15.2898 10.7143C15.3705 10.714 15.447 10.7137 15.5182 10.7134C15.536 10.7133 15.5535 10.7133 15.5707 10.7132C15.5874 10.7131 15.6054 10.7135 15.6222 10.7094C15.6559 10.7019 15.6847 10.6823 15.704 10.6577C15.7241 10.6327 15.7305 10.6034 15.7404 10.5789C15.7494 10.5535 15.758 10.5297 15.766 10.5073C15.7818 10.4627 15.7948 10.4242 15.8048 10.3926C15.8253 10.3298 15.8317 10.293 15.8273 10.293C15.8293 10.2932 15.8211 10.3283 15.7987 10.3906C15.7872 10.4221 15.7733 10.4601 15.7573 10.5041C15.7489 10.5263 15.7399 10.55 15.7304 10.5751C15.72 10.6001 15.7132 10.6283 15.6948 10.6504C15.6768 10.6727 15.6502 10.6902 15.6194 10.6967C15.6041 10.7002 15.5881 10.6998 15.5707 10.6996C15.5535 10.6996 15.536 10.6995 15.5182 10.6994C15.447 10.6991 15.3705 10.6988 15.2898 10.6985C15.1278 10.6981 14.9484 10.6978 14.7574 10.6973L14.7664 10.7058C14.7608 10.6095 14.7551 10.5092 14.7492 10.4067C14.7434 10.3076 14.7378 10.2106 14.7324 10.1173L14.7298 10.1242C14.8275 10.0244 14.921 9.92891 15.0065 9.84163L14.9978 9.84364C15.2638 9.93901 15.4824 10.038 15.6268 10.1237C15.699 10.1666 15.752 10.2069 15.7838 10.239C15.8158 10.2711 15.8259 10.2938 15.8273 10.293Z" fill="#263238"/>
<path d="M14.7326 10.1122C14.7323 10.1134 14.7473 10.1178 14.7748 10.1247C14.8023 10.1316 14.8422 10.1408 14.8916 10.1515C14.9905 10.1731 15.1276 10.2003 15.2798 10.2263C15.4321 10.2523 15.5705 10.2723 15.6709 10.2849C15.7211 10.2911 15.7618 10.2958 15.79 10.2984C15.8182 10.301 15.8338 10.3019 15.834 10.3006C15.8342 10.2994 15.8188 10.2961 15.7909 10.2913C15.7593 10.2861 15.7197 10.2797 15.6727 10.272C15.5729 10.2562 15.435 10.2342 15.2829 10.2082C15.131 10.1822 14.9936 10.157 14.8942 10.1388C14.8473 10.1304 14.8078 10.1233 14.7763 10.1177C14.7484 10.1129 14.7328 10.1109 14.7326 10.1122Z" fill="#263238"/>
<path d="M15.6165 10.7C15.612 10.7024 15.6396 10.7637 15.6781 10.8369C15.7166 10.9102 15.7515 10.9677 15.756 10.9653C15.7605 10.9629 15.7329 10.9016 15.6944 10.8284C15.6559 10.7551 15.621 10.6977 15.6165 10.7Z" fill="#263238"/>
<path d="M10.9381 10.6457C10.9378 10.6508 11.7179 10.6969 12.6802 10.7487C13.6428 10.8005 14.4232 10.8384 14.4235 10.8333C14.4237 10.8282 13.6438 10.7821 12.6812 10.7303C11.7189 10.6785 10.9383 10.6406 10.9381 10.6457Z" fill="white"/>
<path d="M7.18301 10.4412C7.18272 10.4462 7.89965 10.4887 8.78405 10.536C9.66877 10.5833 10.386 10.6175 10.3862 10.6124C10.3865 10.6074 9.66976 10.5649 8.78501 10.5176C7.90061 10.4704 7.18325 10.4361 7.18301 10.4412Z" fill="white"/>
<path d="M11.5334 8.03146C11.5333 8.0321 11.54 8.03337 11.5529 8.03524C11.5677 8.03715 11.5863 8.03955 11.609 8.04248C11.6604 8.04855 11.7304 8.05684 11.8158 8.06694C11.9903 8.08758 12.2313 8.11758 12.4966 8.1557C12.7621 8.19392 13.0018 8.23299 13.1751 8.26236C13.2598 8.27672 13.3293 8.28848 13.3803 8.29712C13.4029 8.30072 13.4214 8.30365 13.4362 8.30598C13.449 8.30782 13.4558 8.30849 13.4559 8.30785C13.456 8.30722 13.4495 8.30535 13.4369 8.30235C13.4222 8.2991 13.4039 8.29504 13.3816 8.29007C13.3335 8.27972 13.2637 8.26582 13.1773 8.24951C13.0045 8.21683 12.7649 8.17571 12.4992 8.13745C12.2336 8.0993 11.9921 8.07131 11.8172 8.05398C11.7297 8.0453 11.6588 8.03895 11.6097 8.03531C11.5868 8.03376 11.5682 8.03252 11.5532 8.0315C11.5403 8.03087 11.5334 8.03083 11.5334 8.03146Z" fill="white"/>
<path d="M15.2672 10.0477C15.2656 10.0528 15.3583 10.0846 15.4687 10.1328C15.5792 10.1807 15.6656 10.2268 15.6683 10.2221C15.6708 10.2181 15.5877 10.1643 15.476 10.1159C15.3645 10.0672 15.2685 10.0431 15.2672 10.0477Z" fill="white"/>
<path d="M18.3602 10.4899C18.3601 10.4903 18.3632 10.491 18.3693 10.4921C18.3765 10.4932 18.3855 10.4947 18.3965 10.4964C18.4219 10.5001 18.4569 10.5051 18.5014 10.5115C18.5925 10.5239 18.7241 10.5429 18.8866 10.5677C19.2116 10.617 19.6594 10.6933 20.1501 10.7971C20.6408 10.9012 21.0811 11.0131 21.3982 11.0998C21.5567 11.1431 21.6848 11.1791 21.7731 11.2047C21.8163 11.2169 21.8503 11.2265 21.875 11.2334C21.8858 11.2363 21.8946 11.2386 21.9016 11.2404C21.9077 11.2419 21.9108 11.2425 21.9109 11.2422C21.911 11.2419 21.908 11.2407 21.9022 11.2386C21.8953 11.2363 21.8867 11.2334 21.8761 11.2298C21.8516 11.2221 21.8179 11.2114 21.7751 11.1978C21.6874 11.1701 21.5599 11.1321 21.4016 11.0872C21.0853 10.9972 20.645 10.8833 20.1538 10.779C19.6627 10.6752 19.2142 10.6008 18.8885 10.5547C18.7257 10.5316 18.5937 10.5146 18.5023 10.5043C18.4576 10.4994 18.4225 10.4955 18.397 10.4927C18.3858 10.4916 18.3768 10.4908 18.3695 10.4901C18.3634 10.4897 18.3602 10.4896 18.3602 10.4899Z" fill="white"/>
<path d="M18.855 11.9551C18.855 11.9558 18.863 11.9563 18.8783 11.9568C18.8954 11.957 18.9175 11.9574 18.9448 11.9578C18.9737 11.9577 19.009 11.9581 19.05 11.9608C19.0909 11.9632 19.1377 11.964 19.189 11.9699C19.2147 11.9724 19.2416 11.9749 19.2696 11.9775C19.2976 11.9803 19.3265 11.9852 19.3565 11.9892C19.4168 11.9964 19.4803 12.0094 19.5473 12.0218C19.6807 12.0501 19.8257 12.0887 19.9741 12.1412C20.1221 12.1949 20.2588 12.2572 20.3798 12.32C20.4395 12.3529 20.4968 12.3832 20.5479 12.4159C20.5736 12.4319 20.5991 12.4465 20.6225 12.4621C20.6458 12.4778 20.6682 12.4929 20.6897 12.5074C20.7331 12.5354 20.7696 12.5645 20.8028 12.5886C20.8361 12.6125 20.8637 12.6346 20.8859 12.653C20.9074 12.6701 20.9246 12.6838 20.938 12.6945C20.9501 12.7038 20.9566 12.7085 20.957 12.708C20.9574 12.7075 20.9517 12.7019 20.9404 12.6917C20.9276 12.6803 20.911 12.6657 20.8905 12.6475C20.8689 12.6282 20.8419 12.6052 20.809 12.5805C20.7763 12.5555 20.7402 12.5256 20.6971 12.4968C20.6758 12.4819 20.6535 12.4664 20.6303 12.4502C20.607 12.4342 20.5816 12.4193 20.5559 12.4029C20.5049 12.3695 20.4475 12.3385 20.3877 12.305C20.2664 12.241 20.1292 12.1779 19.9803 12.1239C19.8311 12.0711 19.6849 12.0328 19.5507 12.0052C19.4832 11.9931 19.4192 11.9806 19.3586 11.9741C19.3283 11.9704 19.2992 11.9658 19.271 11.9634C19.2429 11.9611 19.2158 11.959 19.1899 11.9569C19.1383 11.9518 19.0914 11.952 19.0503 11.9505C19.0092 11.9488 18.9737 11.9494 18.9448 11.9506C18.9174 11.9516 18.8953 11.9524 18.8781 11.953C18.8629 11.9538 18.855 11.9545 18.855 11.9551Z" fill="white"/>
<path d="M4.4835 11.765C4.4835 11.7656 4.49155 11.7665 4.50683 11.7676C4.52402 11.7686 4.54618 11.77 4.57371 11.7716C4.60276 11.7727 4.63827 11.7747 4.67931 11.7793C4.72036 11.7835 4.7673 11.7864 4.81858 11.7947C4.84435 11.7983 4.87128 11.8021 4.89927 11.8061C4.92729 11.8102 4.95613 11.8165 4.98616 11.8219C5.04641 11.832 5.10962 11.8481 5.17636 11.8639C5.30899 11.899 5.45285 11.9451 5.59925 12.0055C5.74516 12.0673 5.87903 12.1374 5.99716 12.2072C6.05526 12.2437 6.11119 12.2773 6.16064 12.3132C6.18556 12.3307 6.21037 12.3468 6.23296 12.3639C6.25544 12.381 6.27704 12.3976 6.29773 12.4134C6.33969 12.444 6.37467 12.4754 6.40654 12.5017C6.43862 12.5277 6.46495 12.5516 6.48616 12.5715C6.50663 12.5899 6.52315 12.6048 6.53592 12.6163C6.54747 12.6264 6.55371 12.6315 6.55417 12.6311C6.55463 12.6306 6.54923 12.6246 6.53854 12.6137C6.52633 12.6015 6.51058 12.5857 6.49107 12.5663C6.47052 12.5455 6.44487 12.5208 6.41328 12.494C6.38194 12.4669 6.34742 12.4346 6.30577 12.4032C6.28523 12.387 6.26377 12.3701 6.24143 12.3526C6.21895 12.3351 6.19428 12.3187 6.1694 12.3007C6.12006 12.2641 6.06415 12.2298 6.00595 12.1927C5.88768 12.1217 5.75317 12.0508 5.60638 11.9886C5.4591 11.9278 5.31418 11.8818 5.18056 11.8475C5.11329 11.8321 5.04962 11.8164 4.98895 11.8069C4.9587 11.8018 4.92969 11.7958 4.90145 11.792C4.87325 11.7885 4.84615 11.7851 4.82021 11.7818C4.76857 11.7743 4.72135 11.7723 4.68009 11.769C4.63883 11.7654 4.60315 11.7645 4.574 11.7644C4.5464 11.7642 4.52413 11.764 4.5069 11.7639C4.49158 11.764 4.48354 11.7643 4.4835 11.765Z" fill="white"/>
<g opacity="0.3">
<path d="M11.1482 11.3697C11.1482 11.4933 11.3313 11.5935 11.5571 11.5935C11.783 11.5935 11.9661 11.4933 11.9661 11.3697C11.9661 11.246 11.783 11.1458 11.5571 11.1458C11.3313 11.1458 11.1482 11.246 11.1482 11.3697Z" fill="black"/>
</g>
<path d="M11.0804 11.4793H12.034C12.0946 11.4793 12.1437 11.4302 12.1437 11.3697C12.1437 11.3091 12.0946 11.26 12.034 11.26H11.0804C11.0198 11.26 10.9707 11.3091 10.9707 11.3697C10.9707 11.4302 11.0198 11.4793 11.0804 11.4793Z" fill="#FF725E"/>
<path d="M11.0804 11.4795C11.0804 11.4785 11.0712 11.4788 11.0547 11.4744C11.0387 11.47 11.0143 11.4592 10.9954 11.4331C10.9764 11.4083 10.9663 11.3648 10.9864 11.3243C10.9962 11.3044 11.0135 11.2862 11.0364 11.2759C11.0592 11.2643 11.0864 11.2665 11.1162 11.2667C11.3528 11.2674 11.6765 11.2684 12.034 11.2694C12.0755 11.2687 12.1143 11.2967 12.128 11.3344C12.1426 11.372 12.1317 11.4167 12.103 11.443C12.0889 11.4564 12.071 11.4654 12.0523 11.4689C12.0342 11.4719 12.0125 11.4702 11.9924 11.4707C11.9518 11.4708 11.912 11.4709 11.8732 11.471C11.7183 11.4718 11.5787 11.4725 11.4606 11.473C11.3446 11.4742 11.2501 11.4752 11.1824 11.476C11.151 11.4767 11.1258 11.4773 11.1067 11.4777C11.0895 11.4782 11.0804 11.4788 11.0804 11.4795C11.0804 11.4801 11.0894 11.4807 11.1067 11.4813C11.1258 11.4817 11.151 11.4823 11.1824 11.483C11.2501 11.4838 11.3446 11.4847 11.4606 11.486C11.5787 11.4865 11.7183 11.4872 11.8732 11.488C11.912 11.4881 11.9518 11.4882 11.9924 11.4883C12.0129 11.4877 12.0326 11.4899 12.0555 11.4864C12.0776 11.4823 12.0987 11.4719 12.1153 11.4562C12.1493 11.4252 12.1623 11.3724 12.1451 11.328C12.129 11.2833 12.0831 11.2503 12.034 11.251C11.6765 11.252 11.3528 11.253 11.1162 11.2537C11.1013 11.254 11.0876 11.2535 11.0728 11.2544C11.0581 11.2554 11.044 11.2593 11.0315 11.2653C11.0062 11.2773 10.9874 11.2977 10.9772 11.3198C10.9561 11.3649 10.9686 11.4116 10.9897 11.4374C11.0108 11.4645 11.037 11.4746 11.0539 11.478C11.0712 11.4814 11.0804 11.4795 11.0804 11.4795Z" fill="#263238"/>
<path d="M11.1765 11.2833C11.1765 11.2884 11.3621 11.2925 11.5911 11.2925C11.8201 11.2925 12.0057 11.2884 12.0057 11.2833C12.0057 11.2783 11.8201 11.2742 11.5911 11.2742C11.3621 11.2742 11.1765 11.2783 11.1765 11.2833Z" fill="white"/>
<g opacity="0.3">
<path d="M6.07938 11.3697C6.07938 11.4933 6.26245 11.5935 6.4883 11.5935C6.71415 11.5935 6.89722 11.4933 6.89722 11.3697C6.89722 11.246 6.71415 11.1458 6.4883 11.1458C6.26245 11.1458 6.07938 11.246 6.07938 11.3697Z" fill="black"/>
</g>
<path d="M6.01152 11.4793H6.96517C7.02573 11.4793 7.07483 11.4302 7.07483 11.3697C7.07483 11.3091 7.02573 11.26 6.96517 11.26H6.01152C5.95096 11.26 5.90186 11.3091 5.90186 11.3697C5.90186 11.4302 5.95096 11.4793 6.01152 11.4793Z" fill="#FF725E"/>
<path d="M6.01153 11.4795C6.0116 11.4785 6.00231 11.4788 5.98587 11.4744C5.96981 11.47 5.94542 11.4592 5.92654 11.4331C5.90755 11.4083 5.89749 11.3648 5.91757 11.3243C5.92731 11.3044 5.94468 11.2862 5.96758 11.2759C5.99031 11.2643 6.0176 11.2665 6.04735 11.2667C6.284 11.2674 6.60764 11.2684 6.96514 11.2694C7.00664 11.2687 7.04547 11.2967 7.05916 11.3344C7.07377 11.372 7.0629 11.4167 7.03414 11.443C7.02009 11.4564 7.0022 11.4654 6.98349 11.4689C6.96538 11.4719 6.94364 11.4702 6.92359 11.4707C6.88297 11.4708 6.84316 11.4709 6.80434 11.471C6.64947 11.4718 6.50981 11.4725 6.39171 11.473C6.27577 11.4742 6.18126 11.4752 6.11353 11.476C6.08211 11.4767 6.05698 11.4773 6.03789 11.4777C6.0206 11.4782 6.01153 11.4788 6.01153 11.4795C6.01153 11.4801 6.0206 11.4807 6.03789 11.4813C6.05695 11.4817 6.08211 11.4823 6.11353 11.483C6.18122 11.4838 6.27574 11.4847 6.39171 11.486C6.50981 11.4865 6.64943 11.4872 6.80434 11.488C6.8432 11.4881 6.88297 11.4882 6.92359 11.4883C6.9441 11.4877 6.96376 11.4899 6.9867 11.4864C7.00876 11.4823 7.0299 11.4719 7.04649 11.4562C7.08048 11.4252 7.0935 11.3724 7.07628 11.328C7.06018 11.2833 7.01423 11.2503 6.96514 11.251C6.60761 11.252 6.284 11.253 6.04735 11.2537C6.03249 11.254 6.01873 11.2535 6.00397 11.2544C5.98925 11.2554 5.97521 11.2593 5.96264 11.2653C5.93737 11.2773 5.91859 11.2977 5.90836 11.3198C5.88725 11.3649 5.89975 11.4116 5.92085 11.4374C5.94196 11.4645 5.96818 11.4746 5.98502 11.478C6.00228 11.4814 6.01153 11.4795 6.01153 11.4795Z" fill="#263238"/>
<path d="M5.96758 11.2931C5.96758 11.2982 6.20324 11.3023 6.49389 11.3023C6.78464 11.3023 7.02026 11.2982 7.02026 11.2931C7.02026 11.288 6.78464 11.2839 6.49389 11.2839C6.20328 11.2839 5.96758 11.288 5.96758 11.2931Z" fill="white"/>
</svg>
