<svg width="24" height="24" viewBox="0 0 24 24" fill="none" xmlns="http://www.w3.org/2000/svg">
<path d="M0 5C0 2.23858 2.23858 0 5 0H19C21.7614 0 24 2.23858 24 5V19C24 21.7614 21.7614 24 19 24H5C2.23858 24 0 21.7614 0 19V5Z" fill="#CF1010"/>
<path d="M15.4415 6.65385H18.6723C18.3488 9.74577 16.8908 12.6081 14.58 14.6877C12.2511 16.7819 9.22579 17.9337 6.09385 17.9185H5.26462V14.8923L8 13.9446L8.90462 15.4738L9.54 16.6154L10.6923 15.9477C12.7555 14.7501 14.5136 13.0915 15.8292 11.1015L16.6154 9.86308L15.3015 9.17385L14.2246 8.61385L15.3985 6.65385M15.3985 5.30769C15.1662 5.30943 14.9383 5.37074 14.7366 5.48576C14.5348 5.60078 14.366 5.76566 14.2462 5.96462L13.1154 7.92462C13.0195 8.08127 12.9569 8.25603 12.9316 8.43796C12.9063 8.6199 12.9188 8.80509 12.9683 8.98198C13.0179 9.15886 13.1033 9.32362 13.2194 9.46596C13.3355 9.6083 13.4798 9.72516 13.6431 9.80923L14.72 10.3692C13.5178 12.1846 11.9104 13.6961 10.0246 14.7846L9.07692 13.2662C8.96601 13.075 8.80975 12.9141 8.62193 12.7977C8.43412 12.6812 8.22052 12.6128 8 12.5985C7.84955 12.5977 7.70013 12.6232 7.55846 12.6738L4.76923 13.6215C4.51524 13.722 4.29783 13.8974 4.14587 14.1244C3.99392 14.3514 3.9146 14.6192 3.91846 14.8923V17.9615C3.91846 18.3186 4.06029 18.661 4.31274 18.9134C4.56519 19.1659 4.90759 19.3077 5.26462 19.3077H6.07231C9.52867 19.3086 12.8632 18.0309 15.434 15.7206C18.0047 13.4103 19.63 10.2307 19.9969 6.79385C20.0149 6.606 19.9935 6.41647 19.9341 6.23737C19.8747 6.05826 19.7785 5.89352 19.6519 5.75366C19.5252 5.6138 19.3707 5.5019 19.1983 5.42511C19.026 5.34832 18.8395 5.30833 18.6508 5.30769H15.3985Z" fill="white"/>
</svg>
