<svg width="24" height="24" viewBox="0 0 24 24" fill="none" xmlns="http://www.w3.org/2000/svg">
<path d="M0 5C0 2.23858 2.23858 0 5 0H19C21.7614 0 24 2.23858 24 5V19C24 21.7614 21.7614 24 19 24H5C2.23858 24 0 21.7614 0 19V5Z" fill="#CF1010"/>
<path d="M15.8205 15.7538L15.1565 17.0026L18.4079 16.471C17.7518 16.1419 16.8635 15.9067 15.8205 15.7538ZM7.44465 16.0261C5.93868 16.4233 4.98462 17.0741 4.98462 18.0407C4.98524 18.2488 5.03073 18.4543 5.11798 18.6433L10.3363 17.7903L7.44465 16.0261ZM19.5084 17.4769L12.2457 18.6607L14.161 20.8397C17.3063 20.558 19.6308 19.5532 19.6308 18.0407C19.6308 17.8391 19.5873 17.6516 19.5084 17.4769ZM11.0185 18.865L6.11116 19.6671C7.4083 20.4706 9.69775 20.9231 12.3077 20.9231C12.4659 20.9231 12.6204 20.9186 12.7762 20.9153L11.0185 18.865Z" fill="white"/>
<path d="M12.308 3.69231C9.49942 3.69231 7.19481 5.98951 7.19481 8.79175C7.19481 9.87764 7.54235 10.8893 8.12889 11.7182L8.11131 11.6908L11.4298 17.4271L11.4436 17.4456C11.5745 17.6163 11.702 17.7509 11.8521 17.8501C12.002 17.9492 12.1881 18.0088 12.3706 17.9906C12.7355 17.954 12.9592 17.6963 13.1713 17.4087L13.1825 17.3937L16.8415 11.1665L16.8437 11.1624C16.9295 11.0073 16.9927 10.8496 17.0465 10.6959C17.2931 10.0914 17.4201 9.44469 17.4204 8.79175C17.4206 5.98951 15.1167 3.69231 12.308 3.69231ZM12.3082 4.40738C14.7274 4.40738 16.7055 6.38117 16.7055 8.79175C16.7055 9.37191 16.5904 9.92554 16.3821 10.4338L16.3783 10.4428L16.3752 10.4518C16.3287 10.5851 16.2782 10.7078 16.2182 10.8164L12.5903 16.9902C12.4228 17.2131 12.3005 17.2789 12.2994 17.2791C12.2989 17.2791 12.297 17.2869 12.247 17.2536C12.1986 17.2217 12.1161 17.143 12.0199 17.0193L8.7218 11.3186L8.71266 11.3056C8.20746 10.5913 7.90988 9.72566 7.90988 8.79193C7.90988 6.38134 9.88901 4.40738 12.3082 4.40738ZM12.308 5.91456C10.7114 5.91456 9.42309 7.19825 9.42309 8.79193C9.42309 10.3856 10.7114 11.6693 12.308 11.6693C13.9046 11.6693 15.1925 10.3856 15.1925 8.79175C15.1925 7.19825 13.9046 5.91456 12.308 5.91456ZM12.308 6.62964C13.5263 6.62964 14.4774 7.57854 14.4774 8.79193C14.4774 10.0053 13.5264 10.9542 12.308 10.9542C11.0895 10.9542 10.1382 10.0051 10.1382 8.79175C10.1382 7.57871 11.0895 6.62964 12.308 6.62964Z" fill="white"/>
</svg>
