<svg width="24" height="24" viewBox="0 0 24 24" fill="none" xmlns="http://www.w3.org/2000/svg">
<path d="M13.0655 10.5369C13.0886 10.5412 13.1117 10.5454 13.1355 10.5498C13.9997 10.7127 14.7975 11.1235 15.3981 11.7735C15.4219 11.7973 15.4456 11.821 15.4701 11.8455C15.504 11.8794 15.504 11.8794 15.5386 11.914C15.555 11.9297 15.5713 11.9454 15.5881 11.9616C15.7443 12.1135 15.8821 12.2767 16.0164 12.448C16.0302 12.4656 16.044 12.4832 16.0582 12.5013C16.2669 12.768 16.4655 13.04 16.6542 13.3211C16.6903 13.3746 16.7269 13.4276 16.7637 13.4805C17.2588 14.1986 17.5813 15.0315 17.7869 15.8767C17.814 15.8803 17.814 15.8803 17.8417 15.8841C18.348 15.9628 18.8428 16.2061 19.1523 16.6232C19.4101 16.9818 19.4683 17.3048 19.4634 17.7375C19.4626 17.8158 19.4634 17.8939 19.4643 17.9722C19.4652 18.4615 19.3319 18.8509 18.9884 19.214C18.6658 19.5202 18.2037 19.7589 17.7518 19.7603C17.717 19.7586 17.6822 19.7568 17.6464 19.7551C17.644 19.7306 17.6416 19.7061 17.6391 19.6808C17.5865 19.2355 17.4116 18.8331 17.0562 18.5466C16.7384 18.3357 16.449 18.2208 16.0638 18.2234C16.0354 18.2235 16.0071 18.2237 15.9778 18.2239C15.7483 18.2293 15.5729 18.2653 15.37 18.378C15.3427 18.3929 15.3154 18.4078 15.2873 18.4232C14.9018 18.6519 14.6844 18.9645 14.555 19.3897C14.5364 19.5195 14.5179 19.6494 14.4988 19.7832C13.154 19.7832 11.8092 19.7832 10.4237 19.7832C10.4144 19.6626 10.4051 19.542 10.3956 19.4178C10.3364 19.1886 10.2299 18.9867 10.0864 18.7995C10.067 18.7732 10.067 18.7732 10.0471 18.7463C9.83289 18.4746 9.49058 18.3137 9.15901 18.2374C9.05679 18.2258 8.95618 18.224 8.85338 18.2251C8.81268 18.2255 8.81268 18.2255 8.77117 18.2258C8.42457 18.234 8.17349 18.3442 7.89433 18.5466C7.87407 18.561 7.85382 18.5753 7.83296 18.5902C7.55749 18.8066 7.36363 19.1724 7.3194 19.5183C7.31224 19.6066 7.30696 19.6946 7.30414 19.7832C6.69271 19.8057 6.12927 19.7106 5.64645 19.3024C5.43417 19.1029 5.27643 18.9037 5.16824 18.6309C5.16071 18.613 5.15319 18.5952 5.14543 18.5768C5.06296 18.3512 5.06922 18.1191 5.06985 17.882C5.06987 17.8094 5.0687 17.7369 5.06746 17.6643C5.0644 17.2423 5.15226 16.9156 5.42117 16.5793C5.4396 16.5535 5.4396 16.5535 5.45839 16.5273C5.69325 16.2183 6.14374 15.9795 6.51723 15.9048C6.58277 15.9027 6.64844 15.9021 6.71396 15.9048C6.71665 15.8888 6.71934 15.8727 6.72212 15.8562C6.75963 15.6504 6.8206 15.4562 6.88785 15.2584C6.89918 15.225 6.9105 15.1915 6.92217 15.157C7.12982 14.5484 7.37356 13.9894 7.74291 13.4599C7.78586 13.3978 7.82795 13.3353 7.86995 13.2726C8.15215 12.8529 8.45953 12.4621 8.79365 12.0827C8.80685 12.0677 8.82004 12.0526 8.83363 12.0372C9.59706 11.1735 10.6162 10.5634 11.7852 10.4842C12.2114 10.4635 12.6449 10.457 13.0655 10.5369Z" fill="#8B948F"/>
<path d="M10.0863 3.31431C10.2049 3.41093 10.3142 3.51666 10.4235 3.62346C10.4417 3.63987 10.4598 3.65628 10.4785 3.67319C11.084 4.23327 11.4186 5.14755 11.6039 5.92799C11.6101 5.95392 11.6163 5.97986 11.6227 6.00659C11.6373 6.07389 11.6492 6.14104 11.6601 6.20903C11.6653 6.23801 11.6705 6.26699 11.6758 6.29685C11.8061 7.11631 11.6927 8.01638 11.2105 8.71028C10.8987 9.12642 10.548 9.40049 10.0582 9.58151C10.0343 9.59056 10.0104 9.59962 9.98585 9.60895C9.48744 9.77229 8.9652 9.64613 8.51137 9.41793C8.36479 9.34016 8.24201 9.24258 8.11902 9.13184C8.10054 9.11764 8.08206 9.10344 8.06303 9.08881C7.52836 8.66794 7.2019 7.87338 7.12045 7.21308C7.00291 5.99012 7.18696 4.67013 7.94688 3.67264C8.51513 2.99052 9.32984 2.77027 10.0863 3.31431Z" fill="#8B948F"/>
<path d="M20.2716 7.93196C20.9565 8.38475 21.2587 9.15327 21.4398 9.91889C21.4449 9.94019 21.4499 9.96149 21.4551 9.98344C21.692 11.0129 21.6161 12.2679 21.0464 13.179C21.0315 13.2029 21.0165 13.2269 21.0012 13.2516C20.6218 13.8243 20.0966 14.2024 19.4348 14.3767C18.8826 14.4563 18.3911 14.3299 17.9299 14.0245C17.3771 13.6021 17.0433 12.9647 16.9265 12.2862C16.8684 11.8242 16.8801 11.3242 16.9994 10.8744C17.0092 10.8329 17.0188 10.7914 17.0284 10.7498C17.2214 9.93992 17.5827 9.20331 18.1236 8.5699C18.1421 8.54758 18.1606 8.52527 18.1797 8.50227C18.3145 8.34389 18.4616 8.21465 18.6294 8.09213C18.6531 8.07471 18.6768 8.05728 18.7012 8.03933C19.1833 7.70816 19.7478 7.65155 20.2716 7.93196Z" fill="#8B948F"/>
<path d="M5.80804 8.01295C5.98547 8.13407 6.14093 8.2782 6.29283 8.42924C6.31284 8.44909 6.31284 8.44909 6.33326 8.46933C7.2018 9.34297 7.64911 10.6648 7.65265 11.8789C7.64315 12.6112 7.34611 13.3127 6.84141 13.8422C6.44117 14.2226 5.93526 14.4042 5.38832 14.399C4.85153 14.3804 4.36237 14.1537 3.98831 13.769C3.96396 13.7458 3.93961 13.7226 3.91453 13.6987C3.89251 13.6756 3.87048 13.6524 3.84779 13.6285C3.83116 13.6114 3.81453 13.5943 3.7974 13.5767C3.41721 13.1707 3.19332 12.6521 3.08898 12.1109C3.08477 12.0894 3.08057 12.068 3.07624 12.0458C2.99593 11.6182 2.99387 11.1957 3.00467 10.7619C3.00495 10.7399 3.00524 10.7179 3.00553 10.6953C3.01743 9.8145 3.33036 8.80954 3.95976 8.17642C4.51463 7.66039 5.17844 7.63899 5.80804 8.01295Z" fill="#8B948F"/>
<path d="M15.9041 3.1175C15.9288 3.12746 15.9535 3.13742 15.979 3.14769C16.5639 3.42117 16.9127 4.06877 17.1408 4.642C17.226 4.87732 17.2821 5.12206 17.3374 5.36582C17.3426 5.38828 17.3479 5.41073 17.3532 5.43387C17.5809 6.42907 17.5154 7.5987 16.9783 8.48754C16.6132 9.0625 16.091 9.48565 15.4225 9.64739C14.9128 9.73346 14.418 9.62662 13.9809 9.3523C13.3613 8.90621 12.9973 8.24624 12.8689 7.50172C12.6946 6.3087 13.0802 5.02255 13.7632 4.04196C14.2744 3.36308 15.0099 2.73161 15.9041 3.1175Z" fill="#8B948F"/>
<path d="M8.85766 18.5608C8.89672 18.5611 8.89672 18.5611 8.93657 18.5614C9.2749 18.5704 9.54077 18.6976 9.77806 18.9402C10.0037 19.2362 10.1136 19.523 10.0872 19.8958C10.029 20.2555 9.86862 20.5493 9.58496 20.782C9.28361 20.9869 8.95117 21.0285 8.59769 20.9743C8.29916 20.9055 8.04916 20.7553 7.87687 20.5022C7.68422 20.1921 7.57836 19.8688 7.66137 19.5017C7.72028 19.3115 7.79935 19.1259 7.9232 18.9684C7.95102 18.9591 7.97884 18.9498 8.00751 18.9402C8.01678 18.9124 8.02606 18.8846 8.03561 18.8559C8.09808 18.8076 8.09808 18.8076 8.17789 18.7576C8.20372 18.7411 8.22955 18.7245 8.25616 18.7075C8.45809 18.5974 8.62738 18.5592 8.85766 18.5608Z" fill="#8B948F"/>
<path d="M16.7942 18.7785C17.0306 18.9749 17.2359 19.2165 17.2808 19.5303C17.3077 19.9209 17.2843 20.2474 17.0156 20.5561C16.9734 20.5989 16.9307 20.6411 16.8873 20.6826C16.8612 20.7087 16.8352 20.7348 16.8083 20.7616C16.5104 20.9661 16.1571 21.0407 15.8012 20.9788C15.4906 20.8955 15.206 20.7097 15.0393 20.4315C14.8756 20.1148 14.8088 19.7947 14.8822 19.4423C14.9955 19.1008 15.2257 18.8282 15.5436 18.6626C15.934 18.4722 16.4507 18.5283 16.7942 18.7785Z" fill="#8B948F"/>
<path d="M8.23804 3.43485C8.25441 3.44147 8.27079 3.4481 8.28766 3.45494C8.22178 3.55375 8.17051 3.57741 8.06283 3.62356C8.035 3.62356 8.00718 3.62356 7.97852 3.62356C8.00851 3.58978 8.03906 3.55649 8.06985 3.52344C8.08681 3.50485 8.10376 3.48627 8.12123 3.46712C8.17524 3.42683 8.17524 3.42683 8.23804 3.43485Z" fill="#969C9A"/>
</svg>
