<svg width="24" height="24" viewBox="0 0 24 24" fill="none" xmlns="http://www.w3.org/2000/svg">
<path d="M16.8984 12.4513L12.1751 11.6742L12.8527 11.1918L13.987 11.3487L15.1198 11.1918L16.8984 12.4513ZM13.987 3.52544C14.2122 3.52536 14.4352 3.56967 14.6432 3.65583C14.8513 3.74199 15.0403 3.86832 15.1995 4.02758C15.3587 4.18684 15.485 4.37592 15.5711 4.58401C15.6572 4.7921 15.7014 5.01512 15.7013 5.24031C15.7013 6.18768 15.0975 6.95519 13.987 6.95519C13.7591 6.95933 13.5328 6.91803 13.3211 6.83371C13.1094 6.74939 12.9167 6.62373 12.7541 6.46408C12.5915 6.30443 12.4624 6.11398 12.3742 5.90386C12.2861 5.69375 12.2407 5.46817 12.2407 5.24031C12.2407 5.01245 12.2861 4.78688 12.3742 4.57676C12.4624 4.36665 12.5915 4.1762 12.7541 4.01655C12.9167 3.8569 13.1094 3.73124 13.3211 3.64692C13.5328 3.5626 13.7591 3.5213 13.987 3.52544ZM14.4137 15.9193V20.0637C14.4137 20.312 14.5124 20.5502 14.6879 20.7258C14.8635 20.9013 15.1017 21 15.35 21C15.5984 21 15.8365 20.9013 16.0121 20.7258C16.1877 20.5502 16.2864 20.312 16.2864 20.0637V15.9193C16.2804 15.6749 16.1791 15.4426 16.0041 15.2719C15.8292 15.1012 15.5945 15.0057 15.35 15.0057C15.1056 15.0057 14.8709 15.1012 14.6959 15.2719C14.521 15.4426 14.4197 15.6749 14.4137 15.9193ZM20.1494 18.2854C20.1493 18.4294 20.0921 18.5675 19.9904 18.6694C19.8887 18.7713 19.7507 18.8287 19.6067 18.829H16.7357V16.1153H17.9775V13.4032C17.9775 13.1046 18.221 12.8608 18.5199 12.8608H19.6067C19.9053 12.8608 20.1494 13.1043 20.1494 13.4032V18.2854ZM13.9658 18.8287H8.39211C8.32076 18.8287 8.25011 18.8146 8.1842 18.7873C8.11828 18.76 8.0584 18.7199 8.00798 18.6695C7.95755 18.619 7.91757 18.5591 7.89031 18.4931C7.86306 18.4272 7.84907 18.3565 7.84914 18.2852V13.403C7.84929 13.259 7.90657 13.1211 8.00838 13.0194C8.11019 12.9177 8.24821 12.8605 8.39211 12.8605H9.47833C9.77782 12.8605 10.0213 13.104 10.0213 13.403V16.115H13.9658V18.8287ZM11.0309 12.9734C10.9906 13.2184 11.0492 13.4694 11.1939 13.6712C11.3385 13.873 11.5574 14.0092 11.8024 14.0497L15.8913 14.7236C16.1363 14.7636 16.3872 14.7048 16.5889 14.5601C16.7906 14.4154 16.9266 14.1965 16.9671 13.9516C16.9871 13.8303 16.9831 13.7062 16.9551 13.5865C16.9272 13.4668 16.876 13.3538 16.8043 13.2539C16.7327 13.154 16.642 13.0692 16.5376 13.0044C16.4331 12.9396 16.3169 12.896 16.1956 12.8761L12.1066 12.2016C11.8617 12.1616 11.6109 12.2204 11.4092 12.3651C11.2075 12.5097 11.0715 12.7285 11.0309 12.9734ZM6.41932 7.84063C5.08509 7.84063 4 6.75554 4 5.42046C4 4.08537 5.08509 3 6.41932 3C7.75356 3 8.84006 4.08566 8.84006 5.42046C8.84006 6.75554 7.75356 7.84063 6.41932 7.84063ZM6.41932 7.24167C6.90226 7.24107 7.36524 7.04898 7.70675 6.70752C8.04826 6.36606 8.24043 5.9031 8.2411 5.42017C8.2411 4.41653 7.42297 3.59868 6.41932 3.59868C5.41483 3.59868 4.59868 4.41653 4.59868 5.42017C4.59898 5.90302 4.79087 6.36603 5.13221 6.70753C5.47356 7.04904 5.93647 7.24114 6.41932 7.24167Z" fill="#B30000"/>
<path d="M6.43198 5.74004C6.40424 5.7527 6.37376 5.75814 6.34335 5.75587C6.31295 5.7536 6.28361 5.74368 6.25806 5.72704C6.23632 5.71312 6.2178 5.69472 6.20375 5.67307C6.18971 5.65141 6.18045 5.627 6.17662 5.60147L6.17407 4.19484C6.17593 4.14782 6.19591 4.10334 6.22984 4.07073C6.26376 4.03811 6.30899 4.0199 6.35605 4.0199C6.40311 4.0199 6.44834 4.03811 6.48227 4.07073C6.51619 4.10334 6.53618 4.14782 6.53803 4.19484V5.28616L7.47098 4.84669C7.49253 4.83632 7.51593 4.83032 7.53982 4.82904C7.56371 4.82777 7.58761 4.83124 7.61015 4.83926C7.63268 4.84728 7.65341 4.85969 7.67112 4.87577C7.68883 4.89185 7.70318 4.91128 7.71333 4.93294C7.73386 4.97661 7.73625 5.02663 7.71998 5.07205C7.7037 5.11747 7.6701 5.1546 7.62652 5.1753L6.43198 5.73976V5.74004ZM13.9872 8.31943L16.2102 7.95745V9.52019L17.3078 10.3457C17.4133 10.452 17.3706 10.573 17.3457 10.6073C17.3159 10.6469 17.2715 10.6732 17.2224 10.6803C17.1733 10.6874 17.1233 10.6748 17.0835 10.6451L15.6984 9.59824C15.5604 9.50497 15.3914 9.46952 15.2275 9.49949C15.0637 9.52946 14.9182 9.62246 14.8222 9.75853C14.7261 9.8946 14.6873 10.0629 14.714 10.2273C14.7406 10.3917 14.8307 10.5391 14.9648 10.6378L17.3315 12.3001C17.4415 12.3776 17.5979 12.4304 17.7537 12.4304C17.8867 12.4304 18.043 12.3753 18.1596 12.2927C18.4079 12.1163 18.4992 11.8032 18.4149 11.5147L17.536 8.91755C17.3013 8.2722 16.7094 7.51261 15.8203 7.51261H12.1538C11.265 7.51261 10.6731 8.2722 10.4381 8.91755L9.55915 11.5147C9.47459 11.8032 9.5665 12.1165 9.8148 12.2927C9.93046 12.3753 10.0874 12.4304 10.2198 12.4304C10.3764 12.4304 10.5331 12.3778 10.6428 12.3001L13.0095 10.6378C13.1437 10.5391 13.2337 10.3917 13.2604 10.2273C13.2871 10.0629 13.2482 9.8946 13.1522 9.75853C13.0562 9.62246 12.9106 9.52946 12.7468 9.49949C12.583 9.46952 12.4139 9.50497 12.276 9.59824L10.89 10.6451C10.8502 10.6747 10.8004 10.6872 10.7514 10.6801C10.7024 10.673 10.6582 10.6468 10.6284 10.6073C10.6033 10.5661 10.5933 10.5175 10.6001 10.4698C10.6069 10.422 10.6301 10.3781 10.6657 10.3457C10.6657 10.3457 11.4101 9.78658 11.7638 9.52019V7.95745L13.9872 8.31971V8.31943Z" fill="#B30000"/>
</svg>
