<svg width="24" height="24" viewBox="0 0 24 24" fill="none" xmlns="http://www.w3.org/2000/svg">
<path d="M8.385 7.71002C8.4975 7.24502 8.9175 6.90002 9.42 6.90002C9.9375 6.90002 10.3725 7.26752 10.47 7.76252C10.4757 7.78809 10.4755 7.81461 10.4694 7.84009C10.4634 7.86557 10.4516 7.88933 10.4349 7.90957C10.4183 7.92981 10.3973 7.94599 10.3735 7.9569C10.3497 7.96781 10.3237 7.97315 10.2975 7.97252H10.2375C10.2525 7.91252 10.26 7.85252 10.26 7.79252C10.26 7.41752 9.96 7.11002 9.5775 7.11002C9.47253 7.11022 9.36901 7.13455 9.27494 7.18112C9.18087 7.2277 9.09876 7.29528 9.03497 7.37865C8.97118 7.46201 8.92741 7.55892 8.90704 7.6619C8.88667 7.76487 8.89025 7.87115 8.9175 7.97252H8.5875C8.4525 7.97252 8.3475 7.83752 8.385 7.71002ZM14.1225 7.71002C14.01 7.24502 13.59 6.90002 13.0875 6.90002C12.5625 6.90002 12.135 7.26752 12.0375 7.76252C12.015 7.87502 12.0975 7.97252 12.21 7.97252H12.27C12.2552 7.91366 12.2477 7.85321 12.2475 7.79252C12.2465 7.70262 12.2635 7.61342 12.2974 7.53016C12.3313 7.4469 12.3816 7.37126 12.4452 7.30769C12.5087 7.24411 12.5844 7.19387 12.6676 7.15993C12.7509 7.12599 12.8401 7.10902 12.93 7.11002C13.035 7.11022 13.1385 7.13455 13.2326 7.18112C13.3266 7.2277 13.4087 7.29528 13.4725 7.37865C13.5363 7.46201 13.5801 7.55892 13.6005 7.6619C13.6208 7.76487 13.6172 7.87115 13.59 7.97252H13.92C14.055 7.97252 14.1525 7.84502 14.1225 7.71002Z" fill="#B30000"/>
<path d="M9.96753 7.78501C9.96753 7.56751 9.79503 7.39501 9.57753 7.39501C9.52499 7.39418 9.47286 7.4044 9.42453 7.42501C9.44282 7.44114 9.45576 7.46246 9.46163 7.48613C9.4675 7.5098 9.46602 7.53469 9.45738 7.5575C9.44875 7.5803 9.43337 7.59994 9.4133 7.61378C9.39323 7.62763 9.36941 7.63504 9.34503 7.63501C9.32504 7.63497 9.30538 7.62995 9.28783 7.62039C9.27028 7.61083 9.25539 7.59703 9.24453 7.58026C9.20942 7.63788 9.18985 7.70361 9.18775 7.77105C9.18565 7.83849 9.20108 7.90532 9.23253 7.96501H9.92253C9.95253 7.91251 9.96753 7.85251 9.96753 7.78501ZM12.7875 7.42126C12.8616 7.39054 12.9433 7.38358 13.0215 7.40134C13.0997 7.41909 13.1704 7.46069 13.224 7.52038C13.2775 7.58008 13.3111 7.65492 13.3203 7.73457C13.3294 7.81421 13.3136 7.89474 13.275 7.96501H12.585C12.5523 7.90311 12.5368 7.83353 12.5403 7.76358C12.5437 7.69364 12.5659 7.62591 12.6045 7.56751C12.6124 7.58365 12.6239 7.59782 12.638 7.60895C12.6521 7.62009 12.6685 7.62792 12.686 7.63185C12.7036 7.63579 12.7218 7.63573 12.7393 7.63169C12.7568 7.62765 12.7732 7.61973 12.7872 7.6085C12.8013 7.59728 12.8126 7.58305 12.8204 7.56686C12.8282 7.55067 12.8323 7.53293 12.8323 7.51495C12.8323 7.49698 12.8283 7.47923 12.8206 7.46301C12.8128 7.44679 12.8015 7.43253 12.7875 7.42126ZM10.62 9.01501L11.0175 7.73251C11.1075 7.44751 11.505 7.44751 11.5875 7.73251L11.985 9.01501C12.0675 9.27751 11.8725 9.54751 11.595 9.54751H11.01C10.7325 9.54751 10.5375 9.27751 10.62 9.01501ZM11.25 10.26C10.845 10.26 10.4625 10.1625 10.14 9.99001C10.0275 9.93001 9.91503 10.0575 9.98253 10.1625C10.2525 10.575 10.7175 10.8525 11.25 10.8525C11.7825 10.8525 12.2475 10.575 12.5175 10.1625C12.585 10.0575 12.465 9.93751 12.36 9.99001C12.0375 10.1625 11.6625 10.26 11.25 10.26Z" fill="#B30000"/>
<path d="M20.6228 19.1302C20.6253 19.1527 20.626 19.1755 20.625 19.1985V21.8325C20.625 22.105 20.5168 22.3663 20.3241 22.559C20.1314 22.7517 19.87 22.86 19.5975 22.86H19.593C19.5604 22.8695 19.5265 22.8745 19.4925 22.875H3.00002C2.90057 22.875 2.80518 22.8355 2.73486 22.7651C2.66453 22.6948 2.62502 22.5994 2.62502 22.5V19.875C2.61776 18.225 3.08682 16.608 3.9759 15.218C4.86498 13.8281 6.1363 12.7242 7.63727 12.039C7.60202 11.99 7.56826 11.94 7.53602 11.889C7.14563 11.7393 6.80903 11.4761 6.56961 11.1334C6.33019 10.7906 6.19894 10.384 6.19277 9.96597V9.43047C5.99592 9.2602 5.84213 9.04577 5.74399 8.8047C5.64584 8.56364 5.60611 8.30277 5.62806 8.04342C5.65 7.78407 5.73298 7.53359 5.87024 7.31244C6.00749 7.09129 6.19511 6.90574 6.41777 6.77097V5.83422C6.29266 5.24709 6.29326 4.64013 6.41956 4.05326C6.54585 3.46639 6.79497 2.9129 7.15052 2.42922C7.56719 1.98611 8.07589 1.6397 8.64085 1.41437C9.2058 1.18904 9.81328 1.09025 10.4205 1.12497H12.1103C12.7184 1.08987 13.3269 1.18846 13.8929 1.41379C14.4589 1.63912 14.9686 1.98572 15.3863 2.42922C15.7456 2.92296 15.9961 3.48727 16.1214 4.08492C16.2467 4.68257 16.2438 5.3 16.113 5.89647V6.77547C16.3328 6.91013 16.5179 7.09439 16.6536 7.31348C16.7893 7.53257 16.8718 7.78041 16.8945 8.03712C16.9171 8.29383 16.8794 8.55229 16.7842 8.79178C16.689 9.03126 16.539 9.24512 16.3463 9.41622V9.96597C16.3457 10.3578 16.2331 10.7412 16.0219 11.0712C15.8106 11.4011 15.5094 11.6638 15.1538 11.8282C15.0998 11.9197 15.041 12.0085 14.9775 12.0945C15.3605 12.282 15.7273 12.496 16.0778 12.7365C15.9563 12.9645 15.8693 13.209 15.8198 13.4632L15.8138 13.4587C15.7833 13.6152 15.767 13.7752 15.765 13.9387C15.7619 14.2838 15.8273 14.6261 15.9573 14.9457C16.0873 15.2654 16.2794 15.556 16.5225 15.801V18.39C16.6677 18.2753 16.8425 18.2043 17.0265 18.1852C17.0578 18.1768 17.0901 18.1725 17.1225 18.1725H17.6475V15.8145C17.6475 15.7395 17.6025 15.6645 17.535 15.627C17.2547 15.4827 17.0151 15.2704 16.8382 15.0095C16.6613 14.7486 16.5528 14.4475 16.5225 14.1337V13.7962C16.5496 13.4885 16.6529 13.1923 16.8232 12.9345C16.9934 12.6766 17.2251 12.4653 17.4975 12.3195C17.64 12.2445 17.82 12.3495 17.82 12.5145V13.6845C17.82 13.992 18.06 14.2395 18.3675 14.247C18.6825 14.2545 18.9375 13.992 18.9375 13.677V12.5145C18.9375 12.3495 19.1175 12.252 19.26 12.327C19.845 12.642 20.2425 13.2645 20.25 13.962C20.25 14.6745 19.8525 15.297 19.26 15.612C19.1925 15.6495 19.1475 15.7245 19.1475 15.7995V16.6132C19.257 16.5772 19.372 16.559 19.4925 16.5585C20.112 16.5585 20.6175 17.064 20.6175 17.6835V19.0747L20.6228 19.1302ZM14.97 12.9337C14.8565 12.8722 14.7415 12.814 14.625 12.759V15.81C14.625 16.4602 13.899 16.8307 13.374 16.4625L13.359 16.4512L11.316 14.6865C11.2977 14.6707 11.2742 14.662 11.25 14.662C11.2258 14.662 11.2024 14.6707 11.184 14.6865L9.14102 16.4512L9.12602 16.4617C9.00698 16.5457 8.8671 16.5953 8.72173 16.6051C8.57636 16.6149 8.4311 16.5844 8.30189 16.5171C8.17267 16.4498 8.06449 16.3482 7.98919 16.2235C7.91389 16.0987 7.87439 15.9557 7.87502 15.81V12.756C7.76602 12.8075 7.65852 12.861 7.55252 12.9165V16.9425C7.55252 17.115 7.68752 17.25 7.86002 17.25H14.6625C14.835 17.25 14.97 17.115 14.97 16.9425V12.9337ZM6.00002 13.9927C5.17035 14.731 4.50721 15.6372 4.05463 16.6514C3.60205 17.6656 3.37039 18.7644 3.37502 19.875V22.125H6.00002V13.9927ZM19.8675 18.1402V17.6835C19.8675 17.478 19.698 17.3085 19.4925 17.3085C19.4188 17.3086 19.3468 17.3304 19.2854 17.3712C19.2241 17.4121 19.1761 17.47 19.1475 17.538V18.141L19.8675 18.1402ZM17.1225 22.11H19.5975C19.6711 22.11 19.7417 22.0807 19.7937 22.0287C19.8458 21.9766 19.875 21.9061 19.875 21.8325V19.2015L19.8698 19.146C19.8573 19.083 19.8233 19.0262 19.7737 18.9855C19.724 18.9447 19.6618 18.9225 19.5975 18.9225H17.1975C17.1728 18.9275 17.1477 18.93 17.1225 18.93C17.0048 18.93 16.9223 19.0215 16.92 19.1115V19.1167C16.9196 19.1489 16.9274 19.1806 16.9428 19.2088C16.9582 19.2371 16.9805 19.2609 17.0078 19.278C17.0594 19.3124 17.1018 19.3591 17.1309 19.4139C17.1601 19.4686 17.1752 19.5298 17.1749 19.5919C17.1746 19.654 17.1589 19.715 17.1292 19.7695C17.0995 19.824 17.0568 19.8703 17.0048 19.9042C16.9796 19.9207 16.9587 19.943 16.944 19.9692C16.9292 19.9955 16.921 20.0249 16.92 20.055C16.92 20.1225 16.9523 20.1727 16.9973 20.2012C17.051 20.2344 17.0954 20.2807 17.1264 20.3356C17.1575 20.3906 17.1742 20.4525 17.1749 20.5157C17.1757 20.5788 17.1605 20.6411 17.1307 20.6968C17.101 20.7525 17.0577 20.7997 17.0048 20.8342C16.9796 20.8507 16.9587 20.873 16.944 20.8992C16.9292 20.9255 16.921 20.9549 16.92 20.985C16.92 21.0525 16.9523 21.1027 16.9973 21.1312C17.0506 21.1643 17.0949 21.2102 17.1258 21.2648C17.1568 21.3194 17.1736 21.3809 17.1747 21.4437C17.1757 21.5065 17.161 21.5685 17.1318 21.6241C17.1027 21.6797 17.06 21.7271 17.0078 21.762C16.9801 21.781 16.9576 21.8065 16.9423 21.8364C16.927 21.8662 16.9193 21.8994 16.92 21.933C16.9245 22.0215 17.0063 22.11 17.1225 22.11ZM9.38102 12.8985C9.11244 12.7938 8.85837 12.6552 8.62502 12.486V15.81C8.62602 15.8245 8.62802 15.8335 8.63102 15.837C8.63597 15.8428 8.64179 15.8479 8.64827 15.852C8.65546 15.8549 8.66305 15.8566 8.67077 15.8572C8.67427 15.8572 8.67927 15.856 8.68577 15.8535L10.548 14.2455C10.2591 14.132 10.002 13.9502 9.79876 13.7156C9.59551 13.481 9.45217 13.2006 9.38102 12.8985ZM6.69002 7.94247C6.69002 8.42697 7.08302 8.81997 7.56752 8.81997L7.92977 8.81847L8.01602 10.1317C8.10337 10.7528 8.41174 11.3215 8.88454 11.7335C9.35734 12.1456 9.96287 12.3733 10.59 12.375H12.015C12.6423 12.3741 13.2481 12.1468 13.7211 11.7347C14.194 11.3227 14.5023 10.7537 14.589 10.1325L14.6693 8.84397L14.9918 8.81697C15.16 8.8028 15.3206 8.74042 15.4542 8.63729C15.5879 8.53417 15.6889 8.39468 15.7453 8.23556C15.8017 8.07643 15.8109 7.90443 15.772 7.74016C15.7331 7.5759 15.6476 7.42636 15.5258 7.30947C15.5016 7.2931 15.4795 7.27397 15.4598 7.25247C15.3539 7.17008 15.2309 7.11243 15.0998 7.08372L14.7833 7.01697L14.8035 6.68697C14.5534 6.74695 14.2903 6.71942 14.058 6.60897L14.0445 6.62847C14.0112 6.67127 13.9623 6.69915 13.9085 6.70604C13.8547 6.71292 13.8003 6.69825 13.7573 6.66522H13.7565L13.875 6.51222L13.7565 6.66447L13.755 6.66372L13.7423 6.65472L13.6853 6.61797C13.3671 6.43243 12.9972 6.35555 12.6315 6.39897C12.5845 6.4045 12.537 6.39361 12.497 6.36814C12.4571 6.34266 12.4271 6.30417 12.4123 6.25917C12.3975 6.21417 12.3987 6.16543 12.4157 6.12121C12.4326 6.07698 12.4644 6.03998 12.5055 6.01647C12.0933 5.92521 11.6723 5.87943 11.25 5.87997C10.7903 5.87997 10.3725 5.93322 9.99977 6.01497C10.0415 6.03799 10.074 6.07483 10.0916 6.11916C10.1092 6.1635 10.1108 6.21257 10.0962 6.25797C10.0815 6.30337 10.0516 6.34226 10.0114 6.36799C9.97124 6.39371 9.92338 6.40466 9.87602 6.39897C9.51033 6.3561 9.1406 6.43294 8.82227 6.61797L8.76527 6.65472L8.75252 6.66372L8.75102 6.66522C8.72788 6.68306 8.7012 6.69575 8.67277 6.70247C8.64433 6.70918 8.61479 6.70975 8.58612 6.70414C8.55744 6.69854 8.53029 6.68688 8.50648 6.66995C8.48267 6.65302 8.46274 6.63121 8.44802 6.60597C8.23802 6.70722 8.00927 6.73797 7.79102 6.70497L7.81202 7.02897L7.45952 7.07172C7.33816 7.08745 7.22127 7.12777 7.11602 7.19022C7.07089 7.26855 6.99898 7.32795 6.91352 7.35747C6.77477 7.51272 6.69002 7.71747 6.69002 7.94247ZM8.43002 6.43797L8.35802 6.30747L8.43077 6.43647L8.43002 6.43797ZM10.59 13.125C10.485 13.125 10.381 13.12 10.278 13.11C10.3843 13.2686 10.5278 13.3987 10.6959 13.4889C10.8641 13.5792 11.0519 13.6269 11.2428 13.6278C11.4336 13.6287 11.6218 13.5827 11.7908 13.494C11.9599 13.4053 12.1046 13.2766 12.2123 13.119C12.1466 13.1227 12.0808 13.1247 12.015 13.125H10.59ZM11.9513 14.2447L13.815 15.8535L13.8293 15.8572C13.837 15.8566 13.8446 15.8549 13.8518 15.852C13.8583 15.8479 13.8641 15.8428 13.869 15.837C13.8727 15.8284 13.8747 15.8193 13.875 15.81V12.561C13.637 12.721 13.3808 12.8485 13.1063 12.9435C13.0287 13.2355 12.8838 13.5053 12.6833 13.7312C12.4827 13.9572 12.232 14.1331 11.9513 14.2447ZM13.8735 4.69197C13.0551 4.31132 12.1635 4.1141 11.2609 4.1141C10.3583 4.1141 9.46665 4.31132 8.64827 4.69197L8.64527 4.69347C8.26228 4.87024 7.90604 5.09999 7.58702 5.37597L7.67102 5.48097C7.79102 5.62797 7.99802 5.66622 8.15702 5.57772L8.15852 5.57697C9.11107 5.05652 10.1796 4.78488 11.265 4.78722C12.6885 4.78722 13.7633 5.24097 14.3715 5.57697H14.373C14.4504 5.62029 14.5406 5.6348 14.6277 5.61791C14.7147 5.60102 14.793 5.55383 14.8485 5.48472L14.85 5.48247L14.9355 5.37672C14.6132 5.10266 14.2562 4.87242 13.8735 4.69197ZM10.275 19.305C10.275 18.7725 9.84002 18.3375 9.30752 18.3375H8.22002C7.68752 18.3375 7.25252 18.7725 7.25252 19.305C7.25252 19.8375 7.68752 20.2725 8.22002 20.2725H9.30752C9.84752 20.2725 10.275 19.845 10.275 19.305Z" fill="#B30000"/>
</svg>
