<svg width="24" height="24" viewBox="0 0 24 24" fill="none" xmlns="http://www.w3.org/2000/svg">
<path d="M12 17V21M15.2 4.90005L14.3 4.50005M15.2 7.10005L14.3 7.50005M16.9 3.20005L16.5 2.30005M16.9 8.80005L16.5 9.70005M19.5 2.30005L19.1 3.20005M19.5 9.70005L19.1 8.80005M21.7 4.50005L20.8 4.90005M21.7 7.50005L20.8 7.10005M22 13V15C22 15.5305 21.7893 16.0392 21.4142 16.4143C21.0391 16.7893 20.5304 17 20 17H4C3.46957 17 2.96086 16.7893 2.58579 16.4143C2.21071 16.0392 2 15.5305 2 15V5.00005C2 4.46962 2.21071 3.96091 2.58579 3.58584C2.96086 3.21076 3.46957 3.00005 4 3.00005H11M8 21H16" stroke="#B30000" stroke-width="1.75385" stroke-linecap="round" stroke-linejoin="round"/>
<path d="M18 9C19.6569 9 21 7.65685 21 6C21 4.34315 19.6569 3 18 3C16.3431 3 15 4.34315 15 6C15 7.65685 16.3431 9 18 9Z" stroke="#B30000" stroke-width="1.75385" stroke-linecap="round" stroke-linejoin="round"/>
</svg>
