<svg width="24" height="24" viewBox="0 0 24 24" fill="none" xmlns="http://www.w3.org/2000/svg">
<path d="M19.96 14.85C19.97 14.7 20 14.55 20 14.4V14.9L19.96 14.85ZM10 14.4C10 15.11 10.15 15.79 10.42 16.4H5V17.4C5 17.95 4.55 18.4 4 18.4H3C2.45 18.4 2 17.95 2 17.4V9.40002L4.08 3.40002C4.28 2.82002 4.84 2.40002 5.5 2.40002H16.5C17.16 2.40002 17.72 2.82002 17.92 3.40002L20 9.40002V14.4C20 11.64 17.76 9.40002 15 9.40002C12.24 9.40002 10 11.64 10 14.4ZM7 11.9C7 11.07 6.33 10.4 5.5 10.4C4.67 10.4 4 11.07 4 11.9C4 12.73 4.67 13.4 5.5 13.4C6.33 13.4 7 12.73 7 11.9ZM18 8.40002L16.5 3.90002H5.5L4 8.40002H18ZM21.87 19.59L17.76 15.48C18.17 14.44 17.94 13.22 17.08 12.37C16.18 11.46 14.83 11.28 13.74 11.78L15.68 13.72L14.33 15.08L12.34 13.13C11.8 14.22 12.05 15.57 12.93 16.48C13.3272 16.8852 13.8341 17.1654 14.3884 17.2862C14.9427 17.407 15.5203 17.3632 16.05 17.16L20.16 21.26C20.34 21.45 20.61 21.45 20.79 21.26L21.83 20.23C22.05 20.05 22.05 19.73 21.87 19.59Z" fill="#B30000"/>
</svg>
