<svg width="25" height="24" viewBox="0 0 25 24" fill="none" xmlns="http://www.w3.org/2000/svg">
<path d="M20.2932 14.1162L9.9463 14.2086C9.32707 14.2141 8.9413 13.5225 9.2604 12.9788L14.3603 4.28978C14.665 3.77057 15.3975 3.76403 15.711 4.27771L20.958 12.8743C21.2863 13.4122 20.9124 14.1107 20.2932 14.1162Z" fill="#FF7145"/>
<path d="M15.106 12.5566C15.5471 12.5527 15.9015 12.1832 15.8977 11.7314C15.8938 11.2795 15.5331 10.9164 15.0921 10.9204C14.651 10.9243 14.2966 11.2938 14.3004 11.7456C14.3043 12.1975 14.6649 12.5606 15.106 12.5566Z" fill="white"/>
<path d="M15.5396 6.35741L14.5675 6.36609C14.431 6.36731 14.325 6.48838 14.3386 6.62752L14.6925 10.2421C14.7045 10.3644 14.8054 10.4572 14.9254 10.4561L15.2514 10.4532C15.3713 10.4521 15.4707 10.3575 15.4806 10.235L15.7728 6.61471C15.7841 6.47535 15.6761 6.35619 15.5396 6.35741Z" fill="white"/>
<path d="M6.66481 17.6981L4.52344 20.262C4.33926 20.4825 4.02171 20.5238 3.78973 20.3573C3.69771 20.2912 3.59698 20.2079 3.49309 20.1032C3.38911 19.9985 3.30601 19.8969 3.23986 19.8038C3.07329 19.569 3.10816 19.2431 3.32006 19.0506L5.78517 16.8126L6.66481 17.6981Z" fill="#265060"/>
<path d="M10.0647 16.737C11.9268 16.7204 13.4232 15.1605 13.4069 13.2529C13.3907 11.3453 11.868 9.81238 10.0059 9.82902C8.14381 9.84565 6.64744 11.4055 6.66367 13.3131C6.67991 15.2207 8.2026 16.7536 10.0647 16.737Z" fill="#E9FDFF"/>
<path d="M7.39671 15.5616L6.58057 16.4124L7.04153 16.8764L7.85767 16.0256L7.39671 15.5616Z" fill="#ACBBBF"/>
<path d="M7.2537 17.0015L6.86831 17.463L6.01115 16.6L6.45489 16.1972C6.53474 16.1248 6.65578 16.128 6.7319 16.2046L7.24167 16.7179C7.31779 16.7945 7.32312 16.9184 7.2537 17.0015Z" fill="#C1D6D5"/>
<path d="M13.407 13.253C13.4098 13.5732 13.3699 13.8836 13.2928 14.1786L9.94612 14.2085C9.32689 14.214 8.94112 13.5223 9.2602 12.9786L11.0209 9.97884C12.3915 10.4074 13.3939 11.7071 13.407 13.253Z" fill="#EDB294"/>
<path d="M13.5073 11.803C13.314 11.3268 13.0325 10.9007 12.6707 10.5364C12.3089 10.1721 11.888 9.8912 11.4198 9.70164C10.9679 9.51855 10.4912 9.42789 10.0031 9.43225C9.51508 9.4366 9.04001 9.53578 8.59116 9.72691C8.12637 9.9248 7.71034 10.2131 7.35472 10.5839C6.99917 10.9546 6.72501 11.3857 6.53989 11.8653C6.36116 12.3283 6.27266 12.8166 6.27692 13.3166C6.28117 13.8166 6.37798 14.3032 6.56455 14.763C6.75781 15.2392 7.03927 15.6654 7.40107 16.0297C7.76294 16.394 8.18382 16.6748 8.6519 16.8645C9.10394 17.0476 9.58063 17.1382 10.0686 17.1338C10.5567 17.1294 11.0318 17.0304 11.4806 16.8392C11.9454 16.6412 12.3615 16.3529 12.717 15.9822C13.0726 15.6115 13.3468 15.1804 13.5319 14.7008C13.7106 14.2377 13.7991 13.7495 13.7948 13.2494C13.7906 12.7494 13.6938 12.2628 13.5073 11.803ZM12.2561 15.5181C11.6733 16.1257 10.8945 16.4643 10.063 16.4718C9.23158 16.4792 8.44711 16.1545 7.85405 15.5574C7.26099 14.9605 6.9304 14.1625 6.92315 13.3108C6.9159 12.4591 7.23286 11.6555 7.81567 11.0479C8.39848 10.4404 9.17731 10.1017 10.0087 10.0943C10.8402 10.0869 11.6247 10.4116 12.2177 11.0086C12.8107 11.6056 13.1413 12.4035 13.1485 13.2552C13.1558 14.1069 12.8388 14.9107 12.2561 15.5181Z" fill="#2C5A68"/>
<path d="M10.0641 16.622C9.19356 16.6298 8.37213 16.2898 7.75117 15.6647C7.13022 15.0395 6.78406 14.2041 6.77646 13.3123C6.76887 12.4204 7.10076 11.5789 7.71098 10.9428C8.32121 10.3067 9.13672 9.95205 10.0073 9.94428C10.8779 9.9365 11.6993 10.2765 12.3203 10.9016C12.9412 11.5268 13.2874 12.3622 13.295 13.254C13.3026 14.1459 12.9707 14.9874 12.3605 15.6235C11.7502 16.2596 10.9347 16.6143 10.0641 16.622ZM10.0099 10.2445C9.21757 10.2516 8.47539 10.5743 7.92005 11.1533C7.3647 11.7322 7.06266 12.498 7.06957 13.3096C7.07648 14.1213 7.3915 14.8816 7.95663 15.4505C8.52174 16.0194 9.26929 16.3288 10.0616 16.3218C10.8539 16.3147 11.596 15.992 12.1514 15.413C12.7067 14.8341 13.0088 14.0683 13.0019 13.2566C12.995 12.445 12.6799 11.6847 12.1148 11.1158C11.5497 10.5469 10.8021 10.2375 10.0099 10.2445Z" fill="#224356"/>
</svg>
