<svg width="24" height="24" viewBox="0 0 24 24" fill="none" xmlns="http://www.w3.org/2000/svg">
<path d="M19.1637 14.138C19.1727 14.0038 19.1997 13.8696 19.1997 13.7354V14.1827L19.1637 14.138ZM10.1999 13.7354C10.1999 14.3706 10.3349 14.9789 10.5779 15.5247H5.69995V16.4193C5.69995 16.9113 5.29496 17.3139 4.79997 17.3139H3.89998C3.40499 17.3139 3 16.9113 3 16.4193V9.26233L4.87196 3.89462C5.05196 3.37574 5.55595 3 6.14994 3H16.0498C16.6437 3 17.1477 3.37574 17.3277 3.89462L19.1997 9.26233V13.7354C19.1997 11.2663 17.1837 9.26233 14.6998 9.26233C12.2158 9.26233 10.1999 11.2663 10.1999 13.7354ZM7.49992 11.4989C7.49992 10.7563 6.89693 10.157 6.14994 10.157C5.40295 10.157 4.79997 10.7563 4.79997 11.4989C4.79997 12.2414 5.40295 12.8408 6.14994 12.8408C6.89693 12.8408 7.49992 12.2414 7.49992 11.4989ZM17.3997 8.36771L16.0498 4.34193H6.14994L4.79997 8.36771H17.3997ZM20.8827 18.3785L17.1837 14.7016C17.5527 13.7712 17.3457 12.6798 16.5717 11.9194C15.7618 11.1052 14.5468 10.9442 13.5658 11.3915L15.3118 13.1271L14.0968 14.3438L12.3058 12.5993C11.8198 13.5744 12.0448 14.7821 12.8368 15.5962C13.6108 16.3656 14.6998 16.5624 15.6448 16.2046L19.3437 19.8725C19.5057 20.0425 19.7487 20.0425 19.9107 19.8725L20.8467 18.9511C21.0447 18.79 21.0447 18.5037 20.8827 18.3785Z" fill="#FF99A1"/>
</svg>
