<svg width="24" height="24" viewBox="0 0 24 24" fill="none" xmlns="http://www.w3.org/2000/svg">
<path d="M18.6923 4.88889H3.92308V3H18.6923V4.88889ZM14.7138 12.4444H13.1538V14.0406C12.5723 14.9378 12.2308 16.005 12.2308 17.1667C12.2308 17.4878 12.2677 17.7994 12.3138 18.1111H3.92308V12.4444H3V10.5556L3.92308 5.83333H18.6923L19.6154 10.5556V11.8306C19.0338 11.6228 18.4154 11.5 17.7692 11.5C16.6338 11.5 15.5908 11.8494 14.7138 12.4444ZM11.3077 12.4444H5.76923V16.2222H11.3077V12.4444ZM19.9292 14.1822L16.6154 17.5728L15.1477 16.0711L14.0769 17.1667L16.6154 20L21 15.5139L19.9292 14.1822Z" fill="#FF9999"/>
</svg>
