<svg width="23" height="24" viewBox="0 0 23 24" fill="none" xmlns="http://www.w3.org/2000/svg">
<path d="M11.5 10.5C10.4834 10.5 9.50833 10.1049 8.78944 9.40165C8.07055 8.69839 7.66669 7.74456 7.66669 6.75C7.66669 5.75544 8.07055 4.80161 8.78944 4.09835C9.50833 3.39509 10.4834 3 11.5 3C12.5167 3 13.4917 3.39509 14.2106 4.09835C14.9295 4.80161 15.3334 5.75544 15.3334 6.75C15.3334 7.74456 14.9295 8.69839 14.2106 9.40165C13.4917 10.1049 12.5167 10.5 11.5 10.5ZM11.5 4.5C10.2274 4.5 9.20002 5.505 9.20002 6.75C9.20002 7.995 10.2274 9 11.5 9C12.7727 9 13.8 7.995 13.8 6.75C13.8 5.505 12.7727 4.5 11.5 4.5Z" fill="white"/>
<path d="M20.7 16.5C20.2707 16.5 19.9333 16.17 19.9333 15.75C19.9333 15.33 20.2707 15 20.7 15C21.1293 15 21.4667 14.67 21.4667 14.25C21.4667 13.2554 21.0628 12.3016 20.3439 11.5983C19.625 10.8951 18.65 10.5 17.6333 10.5H16.1C15.6707 10.5 15.3333 10.17 15.3333 9.75C15.3333 9.33 15.6707 9 16.1 9C17.3727 9 18.4 7.995 18.4 6.75C18.4 5.505 17.3727 4.5 16.1 4.5C15.6707 4.5 15.3333 4.17 15.3333 3.75C15.3333 3.33 15.6707 3 16.1 3C17.1167 3 18.0917 3.39509 18.8106 4.09835C19.5295 4.80161 19.9333 5.75544 19.9333 6.75C19.9333 7.68 19.596 8.52 19.0133 9.18C21.298 9.78 23 11.82 23 14.25C23 15.495 21.9727 16.5 20.7 16.5ZM2.3 16.5C1.02733 16.5 0 15.495 0 14.25C0 11.82 1.68667 9.78 3.98667 9.18C3.41933 8.52 3.06667 7.68 3.06667 6.75C3.06667 5.75544 3.47053 4.80161 4.18942 4.09835C4.90831 3.39509 5.88334 3 6.9 3C7.32933 3 7.66667 3.33 7.66667 3.75C7.66667 4.17 7.32933 4.5 6.9 4.5C5.62733 4.5 4.6 5.505 4.6 6.75C4.6 7.995 5.62733 9 6.9 9C7.32933 9 7.66667 9.33 7.66667 9.75C7.66667 10.17 7.32933 10.5 6.9 10.5H5.36667C4.35 10.5 3.37498 10.8951 2.65609 11.5983C1.9372 12.3016 1.53333 13.2554 1.53333 14.25C1.53333 14.67 1.87067 15 2.3 15C2.72933 15 3.06667 15.33 3.06667 15.75C3.06667 16.17 2.72933 16.5 2.3 16.5ZM16.1 21H6.9C5.62733 21 4.6 19.995 4.6 18.75V17.25C4.6 14.355 7.00733 12 9.96667 12H13.0333C15.9927 12 18.4 14.355 18.4 17.25V18.75C18.4 19.995 17.3727 21 16.1 21ZM9.96667 13.5C8.95 13.5 7.97498 13.8951 7.25609 14.5983C6.5372 15.3016 6.13333 16.2554 6.13333 17.25V18.75C6.13333 19.17 6.47067 19.5 6.9 19.5H16.1C16.5293 19.5 16.8667 19.17 16.8667 18.75V17.25C16.8667 16.2554 16.4628 15.3016 15.7439 14.5983C15.025 13.8951 14.05 13.5 13.0333 13.5H9.96667Z" fill="white"/>
</svg>
